<svg xmlns="http://www.w3.org/2000/svg" width="26" height="26" viewBox="0 0 26 26">
  <path id="Vector" d="M3.355,0h8.387V6.5a1.65,1.65,0,0,0,1.677,1.625h6.71v7.313H9.226a3.307,3.307,0,0,0-3.355,3.25V26H3.355A3.307,3.307,0,0,1,0,22.75V3.25A3.307,3.307,0,0,1,3.355,0ZM13.419,6.5V0l6.71,6.5ZM10.9,17.875a2.845,2.845,0,1,1,0,5.688h-.839v1.625a.839.839,0,0,1-1.677,0v-6.5a.828.828,0,0,1,.839-.812Zm1.258,2.844A1.236,1.236,0,0,0,10.9,19.5h-.839v2.438H10.9A1.236,1.236,0,0,0,12.161,20.719Zm5.452-2.844a2.478,2.478,0,0,1,2.516,2.438v3.25A2.478,2.478,0,0,1,17.613,26H15.936a.828.828,0,0,1-.839-.812v-6.5a.828.828,0,0,1,.839-.812Zm.839,5.688v-3.25a.828.828,0,0,0-.839-.812h-.839v4.875h.839A.828.828,0,0,0,18.452,23.563Zm4.194-5.687h2.516a.813.813,0,1,1,0,1.625H23.484v1.625h1.677a.813.813,0,1,1,0,1.625H23.484v2.438a.839.839,0,0,1-1.677,0v-6.5A.828.828,0,0,1,22.645,17.875Z" fill="#fff" style="isolation: isolate"/>
</svg>
