<svg xmlns="http://www.w3.org/2000/svg" width="13" height="17.55" viewBox="0 0 13 17.55">
  <path id="Vector" d="M0,2.194V15.356A2.182,2.182,0,0,0,2.167,17.55h8.667A2.182,2.182,0,0,0,13,15.356V5.484H8.667a1.089,1.089,0,0,1-1.083-1.1V0H2.167A2.182,2.182,0,0,0,0,2.194ZM8.667,4.387H13L8.667,0ZM2.484,8A1.074,1.074,0,0,1,4.016,8a1.107,1.107,0,0,1,0,1.551,1.074,1.074,0,0,1-1.532,0A1.107,1.107,0,0,1,2.484,8Zm5.275,2.109L10.739,14.5a.556.556,0,0,1,.034.566.543.543,0,0,1-.481.295H2.708a.537.537,0,0,1-.471-.278.554.554,0,0,1,.007-.552L3.87,11.785a.543.543,0,0,1,.464-.267.536.536,0,0,1,.464.267l.433.734,1.635-2.406a.543.543,0,0,1,.447-.236v0A.542.542,0,0,1,7.759,10.108Z" fill="#fff" style="isolation: isolate"/>
</svg>
