<svg xmlns="http://www.w3.org/2000/svg" xmlns:xlink="http://www.w3.org/1999/xlink" width="24" height="24" viewBox="0 0 24 24">
  <defs>
    <clipPath id="clip-path">
      <rect id="Capa_1" width="24" height="24" fill="none" style="isolation: isolate"/>
    </clipPath>
  </defs>
  <g id="Capa_1-2" data-name="Capa_1" clip-path="url(#clip-path)" style="isolation: isolate">
    <rect id="Capa_1-3" data-name="Capa_1" width="24" height="24" fill="none" style="isolation: isolate"/>
    <path id="Vector" d="M0,11.1c.016-.066.037-.132.046-.2.056-.393.088-.79.165-1.179A11.835,11.835,0,0,1,3.9,3.154,11.7,11.7,0,0,1,9.883.187C10.3.113,10.729.062,11.151,0h1.687c.469.067.944.11,1.408.2a11.8,11.8,0,0,1,7.2,4.413,11.626,11.626,0,0,1,2.384,9.347,11.544,11.544,0,0,1-4.436,7.458A11.64,11.64,0,0,1,9.523,23.73a11.63,11.63,0,0,1-6.915-4.28A11.657,11.657,0,0,1,.136,13.8C.09,13.5.045,13.19,0,12.884Zm1.5.906A10.5,10.5,0,1,0,11.985,1.5h0A10.53,10.53,0,0,0,1.5,12.009Z" fill="#fff" style="isolation: isolate"/>
    <path id="Vector-2" data-name="Vector" d="M5.793,5.532a.255.255,0,0,0,.293-.214C6.584,3.754,7.091,2.193,7.6.632a.763.763,0,0,1,1.5,0c.5,1.547,1,3.093,1.494,4.643a.308.308,0,0,0,.359.254c1.632-.011,3.263-.007,4.895-.008a.759.759,0,0,1,.463,1.415q-1.989,1.442-3.984,2.877a.293.293,0,0,0-.13.4q.781,2.347,1.54,4.7a.749.749,0,0,1-.576,1.031.805.805,0,0,1-.65-.2c-1.323-.966-2.649-1.928-3.967-2.9a.278.278,0,0,0-.4.006q-1.978,1.457-3.968,2.9a.762.762,0,0,1-.953.069.782.782,0,0,1-.259-.96c.5-1.545,1.006-3.092,1.524-4.632A.317.317,0,0,0,4.344,9.8C3.03,8.861,1.725,7.91.414,6.967A.818.818,0,0,1,0,6.183a.741.741,0,0,1,.752-.657c.843,0,1.686,0,2.53,0v0C4.122,5.527,4.957,5.522,5.793,5.532ZM8.317,3.307q-.5,1.554-1,3.107a.773.773,0,0,1-.842.625c-.6,0-1.2-.006-1.8-.007-.5,0-1,0-1.569,0,.117.09.177.138.239.182q1.251.907,2.5,1.813a.761.761,0,0,1,.31.961c-.086.274-.177.548-.267.821L5.1,13.2c.119-.081.195-.131.267-.184q1.229-.9,2.459-1.792a.765.765,0,0,1,1.046,0c.228.164.454.33.681.495L11.578,13.2c-.035-.122-.054-.193-.077-.264q-.474-1.453-.949-2.905A.787.787,0,0,1,10.891,9l2.464-1.784c.065-.047.126-.1.221-.177-1.144,0-2.235,0-3.327,0a.784.784,0,0,1-.87-.619c-.158-.488-.314-.978-.472-1.466Q8.639,4.126,8.37,3.3h0Z" transform="translate(3.649 3.33)" fill="#fff" style="isolation: isolate"/>
  </g>
</svg>
