<svg id="Grupo_181" data-name="Grupo 181" xmlns="http://www.w3.org/2000/svg" xmlns:xlink="http://www.w3.org/1999/xlink" width="22" height="17.646" viewBox="0 0 22 17.646">
  <defs>
    <clipPath id="clip-path">
      <rect id="Rectángulo_14" data-name="Rectángulo 14" width="22" height="17.646" fill="#fff"/>
    </clipPath>
  </defs>
  <g id="Grupo_181-2" data-name="Grupo 181" clip-path="url(#clip-path)">
    <path id="Trazado_15" data-name="Trazado 15" d="M51.568,30.054H53.16c0,.067.01.129.009.192q-.007,5.867-.011,11.734a2.423,2.423,0,0,1-.719,1.814,2.072,2.072,0,0,1-1.3.562,5.069,5.069,0,0,1-.522.027q-4.109,0-8.218,0a2.4,2.4,0,0,1-1.7-.6,2.195,2.195,0,0,1-.718-1.672q0-5.716,0-11.431V30.06h1.595c0,.061.008.119.008.177q-.007,3.737-.015,7.473c0,.892,0,1.783-.01,2.675,0,.1.021.142.122.155a2.767,2.767,0,0,1,.474.083,2.17,2.17,0,0,1,1.533,1.537,3.537,3.537,0,0,1,.083.473c.01.07.037.111.114.1.036,0,.073,0,.11,0h5.143c.22,0,.212,0,.235-.218a2.1,2.1,0,0,1,1.49-1.847,4.319,4.319,0,0,1,.565-.118c.116-.02.161-.063.144-.192a3.592,3.592,0,0,1-.01-.468q0-4.619,0-9.239v-.6" transform="translate(-35.569 -26.738)" fill="#fff"/>
    <path id="Trazado_16" data-name="Trazado 16" d="M10.989,1.648H3.018A1.422,1.422,0,0,0,1.644,2.661a1.762,1.762,0,0,0-.053.477c-.007.887,0,1.774-.01,2.661a.8.8,0,0,1-.509.734A.783.783,0,0,1,.018,5.883C0,5.65,0,5.415,0,5.181c0-.768-.009-1.536.012-2.3A2.9,2.9,0,0,1,1.068.731,3.068,3.068,0,0,1,2.83.03,5.227,5.227,0,0,1,3.407,0q7.7,0,15.4,0A3.086,3.086,0,0,1,21.36,1.175a2.756,2.756,0,0,1,.625,1.661c.025.974.012,1.949.007,2.923a.785.785,0,0,1-1.565.122,3.339,3.339,0,0,1-.021-.426c0-.8.009-1.609,0-2.413a1.455,1.455,0,0,0-1.459-1.4c-2.652.016-5.3.006-7.957.006" transform="translate(0 0)" fill="#fff"/>
    <path id="Trazado_17" data-name="Trazado 17" d="M73.244,65.655a3.507,3.507,0,0,1-2.578-1.071,2.358,2.358,0,0,1-.6-2.273A2.574,2.574,0,0,1,71.6,60.554a3.781,3.781,0,0,1,1.625-.373,3.322,3.322,0,0,1,2.892,1.369,2.23,2.23,0,0,1,.347,1.927,2.808,2.808,0,0,1-2.014,2,4.305,4.305,0,0,1-1.2.178" transform="translate(-62.266 -53.541)" fill="#fff"/>
  </g>
</svg>
