<svg xmlns="http://www.w3.org/2000/svg" width="22" height="21" viewBox="0 0 22 21">
  <g id="Vector" fill="none" style="isolation: isolate">
    <path d="M10.214,0h1.571a2.306,2.306,0,0,1,2.357,2.25v16.5A2.306,2.306,0,0,1,11.786,21H10.214a2.306,2.306,0,0,1-2.357-2.25V2.25A2.306,2.306,0,0,1,10.214,0ZM2.357,9H3.929a2.306,2.306,0,0,1,2.357,2.25v7.5A2.306,2.306,0,0,1,3.929,21H2.357A2.306,2.306,0,0,1,0,18.75v-7.5A2.306,2.306,0,0,1,2.357,9ZM19.643,3A2.306,2.306,0,0,1,22,5.25v13.5A2.306,2.306,0,0,1,19.643,21H18.071a2.306,2.306,0,0,1-2.357-2.25V5.25A2.306,2.306,0,0,1,18.071,3Z" stroke="none"/>
    <path d="M 10.21430015563965 1.600000381469727 C 9.796799659729004 1.600000381469727 9.45713996887207 1.891590118408203 9.45713996887207 2.25 L 9.45713996887207 18.75 C 9.45713996887207 19.1084098815918 9.796799659729004 19.39999961853027 10.21430015563965 19.39999961853027 L 11.78569984436035 19.39999961853027 C 12.20322036743164 19.39999961853027 12.54290008544922 19.1084098815918 12.54290008544922 18.75 L 12.54290008544922 2.25 C 12.54290008544922 1.891590118408203 12.20322036743164 1.600000381469727 11.78569984436035 1.600000381469727 L 10.21430015563965 1.600000381469727 M 18.0713996887207 4.600000381469727 C 17.6539306640625 4.600000381469727 17.31430053710938 4.891590118408203 17.31430053710938 5.25 L 17.31430053710938 18.75 C 17.31430053710938 19.1084098815918 17.6539306640625 19.39999961853027 18.0713996887207 19.39999961853027 L 19.64290046691895 19.39999961853027 C 20.06036949157715 19.39999961853027 20.39999961853027 19.1084098815918 20.39999961853027 18.75 L 20.39999961853027 5.25 C 20.39999961853027 4.891590118408203 20.06036949157715 4.600000381469727 19.64290046691895 4.600000381469727 L 18.0713996887207 4.600000381469727 M 2.357139587402344 10.60000038146973 C 1.93964958190918 10.60000038146973 1.600000381469727 10.8915901184082 1.600000381469727 11.25 L 1.600000381469727 18.75 C 1.600000381469727 19.1084098815918 1.93964958190918 19.39999961853027 2.357139587402344 19.39999961853027 L 3.928569793701172 19.39999961853027 C 4.346059799194336 19.39999961853027 4.685710906982422 19.1084098815918 4.685710906982422 18.75 L 4.685710906982422 11.25 C 4.685710906982422 10.8915901184082 4.346059799194336 10.60000038146973 3.928569793701172 10.60000038146973 L 2.357139587402344 10.60000038146973 M 10.21430015563965 0 L 11.78569984436035 0 C 13.0871000289917 0 14.14290046691895 1.007810592651367 14.14290046691895 2.25 L 14.14290046691895 18.75 C 14.14290046691895 19.99220085144043 13.0871000289917 21 11.78569984436035 21 L 10.21430015563965 21 C 8.912949562072754 21 7.857139587402344 19.99220085144043 7.857139587402344 18.75 L 7.857139587402344 2.25 C 7.857139587402344 1.007810592651367 8.912949562072754 0 10.21430015563965 0 Z M 18.0713996887207 3 L 19.64290046691895 3 C 20.94420051574707 3 22 4.007810592651367 22 5.25 L 22 18.75 C 22 19.99220085144043 20.94420051574707 21 19.64290046691895 21 L 18.0713996887207 21 C 16.77009963989258 21 15.71430015563965 19.99220085144043 15.71430015563965 18.75 L 15.71430015563965 5.25 C 15.71430015563965 4.007810592651367 16.77009963989258 3 18.0713996887207 3 Z M 2.357139587402344 9 L 3.928569793701172 9 C 5.229909896850586 9 6.285710334777832 10.00780010223389 6.285710334777832 11.25 L 6.285710334777832 18.75 C 6.285710334777832 19.99220085144043 5.229909896850586 21 3.928569793701172 21 L 2.357139587402344 21 C 1.05579948425293 21 0 19.99220085144043 0 18.75 L 0 11.25 C 0 10.00780010223389 1.05579948425293 9 2.357139587402344 9 Z" stroke="none" fill="#fff"/>
  </g>
</svg>
