<svg xmlns="http://www.w3.org/2000/svg" width="24" height="23.826" viewBox="0 0 24 23.826">
  <g id="Group_474" data-name="Group 474" style="isolation: isolate">
    <g id="Group_473" data-name="Group 473" style="isolation: isolate">
      <path id="Vector" d="M23.947,11.651l-.01-.018a1.711,1.711,0,0,0-1.36-1.243c-1.409-.285-2.842-.569-4.229-.843L16.594,9.2l-1.719-.342-.612-.122V7.153q0-1.853,0-3.706a1.752,1.752,0,0,0-1.5-1.791c-1.345-.215-2.714-.424-4.038-.625L7.475.839,5.589.553C4.459.381,3.289.2,2.139.025A1.907,1.907,0,0,0,.6.441,1.687,1.687,0,0,0,0,1.74c0,6.285,0,13.409.01,20.35a2.038,2.038,0,0,0,.281.93,1.753,1.753,0,0,0,1.108.791l.045.015H22.553l.044-.013a1.863,1.863,0,0,0,1.2-.925,3.022,3.022,0,0,0,.132-.314c.016-.042.032-.084.049-.126L24,22.392V11.756l-.031-.063Q23.959,11.672,23.947,11.651Zm-14.913,4.8a2.461,2.461,0,0,0-.594-.063c-.884,0-1.783,0-2.629,0a1.787,1.787,0,0,0-1.925,1.921v3.927H3.282c-.46,0-.919,0-1.379,0-.291,0-.311-.021-.311-.316q0-10,0-20c0-.229.048-.278.053-.282a.224.224,0,0,1,.127-.024,1.057,1.057,0,0,1,.147.012c.911.134,1.836.275,2.731.411l1.412.214,1.794.269L9.8,2.807c.886.134,1.755.265,2.632.4.206.032.225.055.225.267q0,2.269,0,4.538V22.223h-2.3V21.084c0-.925,0-1.882,0-2.822l0,0A1.751,1.751,0,0,0,9.035,16.452ZM5.784,17.979c.865,0,1.793,0,2.715,0,.23,0,.271.081.271.251,0,1.119,0,2.256,0,3.356v.634H5.493V18.269h0C5.494,18.014,5.529,17.979,5.784,17.979ZM15.2,22.234h-.924V10.365l.618.122,2.048.4q2.636.522,5.27,1.047c.165.033.187.059.192.229s0,.352,0,.524c0,.073,0,.146,0,.22v8.919a1.87,1.87,0,0,1-.012.262c-.013.087-.043.117-.134.131a1.479,1.479,0,0,1-.225.011H15.2Z" fill="#fff" style="isolation: isolate"/>
      <path id="Vector-2" data-name="Vector" d="M.758.011A.768.768,0,0,0,.205.249a.806.806,0,0,0-.2.6.781.781,0,0,0,.8.745c.128,0,.257,0,.385,0h.868c.22,0,.447,0,.673,0a.775.775,0,0,0,.8-.737.807.807,0,0,0-.2-.6A.759.759,0,0,0,2.78.013h0C2.114,0,1.434,0,.758.011Z" transform="translate(2.924 4.691)" fill="#fff" style="isolation: isolate"/>
      <path id="Vector-3" data-name="Vector" d="M1.491,1.593h.858c.123,0,.248,0,.371,0A.776.776,0,0,0,3.533.829.8.8,0,0,0,3.324.245.784.784,0,0,0,2.763.01C2.092,0,1.419,0,.764.011A.778.778,0,0,0,.207.247.8.8,0,0,0,0,.837a.778.778,0,0,0,.818.754h0C1.043,1.594,1.267,1.593,1.491,1.593Z" transform="translate(2.924 7.615)" fill="#fff" style="isolation: isolate"/>
      <path id="Vector-4" data-name="Vector" d="M.8,1.589c.128,0,.255,0,.383,0h.871c.22,0,.447,0,.672,0a.775.775,0,0,0,.8-.738.807.807,0,0,0-.2-.6A.766.766,0,0,0,2.779.011C2.114,0,1.433,0,.757.011A.767.767,0,0,0,.2.249a.8.8,0,0,0-.2.6H0A.782.782,0,0,0,.8,1.589Z" transform="translate(2.924 10.541)" fill="#fff" style="isolation: isolate"/>
      <path id="Vector-5" data-name="Vector" d="M.758.011A.768.768,0,0,0,.205.249a.806.806,0,0,0-.2.6.781.781,0,0,0,.8.745c.127,0,.254,0,.381,0h.873c.22,0,.446,0,.671,0a.775.775,0,0,0,.8-.737.807.807,0,0,0-.2-.6.759.759,0,0,0-.55-.239h0C2.114,0,1.434,0,.758.011Z" transform="translate(2.924 13.463)" fill="#fff" style="isolation: isolate"/>
      <path id="Vector-6" data-name="Vector" d="M1.183,1.591h.853q.34,0,.678,0A.794.794,0,0,0,3.54.847.782.782,0,0,0,2.77.011C2.106,0,1.434,0,.771.01A.785.785,0,0,0,.209.249.8.8,0,0,0,0,.83a.777.777,0,0,0,.813.76h0Z" transform="translate(7.798 4.693)" fill="#fff" style="isolation: isolate"/>
      <path id="Vector-7" data-name="Vector" d="M1.183,1.591h.853q.34,0,.678,0A.794.794,0,0,0,3.54.847.782.782,0,0,0,2.77.011C2.1,0,1.432,0,.771.01A.783.783,0,0,0,.209.249.8.8,0,0,0,0,.83a.778.778,0,0,0,.813.761v0Z" transform="translate(7.798 7.617)" fill="#fff" style="isolation: isolate"/>
      <path id="Vector-8" data-name="Vector" d="M1.185,1.591h.857c.224,0,.448,0,.672,0A.794.794,0,0,0,3.54.847.782.782,0,0,0,2.77.011C2.1,0,1.432,0,.771.01A.783.783,0,0,0,.209.249.8.8,0,0,0,0,.83a.778.778,0,0,0,.813.761v0Z" transform="translate(7.797 10.541)" fill="#fff" style="isolation: isolate"/>
      <path id="Vector-9" data-name="Vector" d="M3.338.266A.785.785,0,0,0,2.771.011C2.107,0,1.435,0,.772.01A.786.786,0,0,0,.209.249.8.8,0,0,0,0,.83a.778.778,0,0,0,.813.761l.37,0h.861c.223,0,.447,0,.67,0A.8.8,0,0,0,3.541.849v0A.785.785,0,0,0,3.338.266Z" transform="translate(7.796 13.463)" fill="#fff" style="isolation: isolate"/>
    </g>
    <path id="Vector-10" data-name="Vector" d="M1.179,1.589h.855c.225,0,.458,0,.688,0A.794.794,0,0,0,3.331.255.759.759,0,0,0,2.786.011C2.086,0,1.4,0,.741.012A.747.747,0,0,0,.206.247.8.8,0,0,0,0,.838a.772.772,0,0,0,.8.749h0C.924,1.588,1.052,1.589,1.179,1.589Z" transform="translate(16.568 13.467)" fill="#fff" style="isolation: isolate"/>
    <path id="Vector-11" data-name="Vector" d="M.753.012A.763.763,0,0,0,.2.254a.8.8,0,0,0-.2.6.779.779,0,0,0,.8.734c.225,0,.451,0,.671,0h.875c.126,0,.253,0,.38,0A.793.793,0,0,0,3.324.249.775.775,0,0,0,2.775.01h0C2.061,0,1.4,0,.753.012Z" transform="translate(16.568 16.389)" fill="#fff" style="isolation: isolate"/>
    <path id="Vector-12" data-name="Vector" d="M.771.01A.785.785,0,0,0,.209.249.8.8,0,0,0,0,.83a.778.778,0,0,0,.813.761l.37,0h.861c.223,0,.447,0,.67,0A.794.794,0,0,0,3.541.849a.783.783,0,0,0-.77-.836v0C2.106,0,1.434,0,.771.01Z" transform="translate(16.568 19.311)" fill="#fff" style="isolation: isolate"/>
  </g>
</svg>
