<svg xmlns="http://www.w3.org/2000/svg" width="23" height="23" viewBox="0 0 23 23">
  <g id="Group_475" data-name="Group 475" style="isolation: isolate">
    <path id="Vector" d="M0,7.711c0,.561.2.76.765.76H22.242c.545,0,.757-.209.758-.746V5.234a.628.628,0,0,0-.471-.7l-2.089-.87C17.623,2.487,14.711,1.274,11.848.078a.814.814,0,0,0-.662-.015C7.384,1.651,3.871,3.115.448,4.54A.668.668,0,0,0,0,5.222c.007.591.006,1.191,0,1.773H0C0,7.234,0,7.472,0,7.711ZM1.267,5.517l4-1.663c2.017-.839,4.1-1.707,6.153-2.558A.287.287,0,0,1,11.6,1.3c3.227,1.339,6.54,2.719,10.127,4.22a.21.21,0,0,1,.062.047c.009.469.008.932.007,1.423v.251H1.208V6.7c0-.359,0-.731,0-1.1h0C1.2,5.545,1.2,5.543,1.267,5.517Z" fill="#fff" style="isolation: isolate"/>
    <path id="Vector-2" data-name="Vector" d="M22.4,0H.62A.578.578,0,0,0,0,.617c0,.914,0,1.824,0,2.705a.579.579,0,0,0,.58.606c.065,0,.128,0,.189,0H22.219c.056,0,.113,0,.17,0a.578.578,0,0,0,.605-.607c0-.963,0-1.855,0-2.726h0A.574.574,0,0,0,22.4,0Zm-.621,2.707H1.221V1.22h20.56Z" transform="translate(0.002 19.068)" fill="#fff" style="isolation: isolate"/>
    <path id="Vector-3" data-name="Vector" d="M.73,9.4H4.113c.509,0,.736-.227.736-.734V.725c0-.5-.222-.724-.72-.725H.726A.63.63,0,0,0,0,.719V8.657H0C0,9.168.225,9.4.73,9.4Zm.5-8.159H3.617V8.166H1.234Z" transform="translate(9.077 9.068)" fill="#fff" style="isolation: isolate"/>
    <path id="Vector-4" data-name="Vector" d="M.713,9.4h3.4a.639.639,0,0,0,.729-.723c0-2.613,0-5.291,0-7.959A.627.627,0,0,0,4.133,0H.709C.219,0,0,.219,0,.708v7.98A.62.62,0,0,0,.713,9.4Zm2.9-1.229H1.218V1.239h2.39Z" transform="translate(2.728 9.068)" fill="#fff" style="isolation: isolate"/>
    <path id="Vector-5" data-name="Vector" d="M.727,0C.232,0,0,.229,0,.719Q0,4.7,0,8.677A.634.634,0,0,0,.71,9.4L2.4,9.4l1.736,0a.62.62,0,0,0,.709-.713V.7c0-.48-.227-.7-.713-.7Zm2.9,8.169H1.235V1.233H3.626Z" transform="translate(15.431 9.068)" fill="#fff" style="isolation: isolate"/>
  </g>
</svg>
