<?xml version="1.0" encoding="UTF-8" standalone="no" ?>
<!DOCTYPE svg PUBLIC "-//W3C//DTD SVG 1.1//EN" "http://www.w3.org/Graphics/SVG/1.1/DTD/svg11.dtd">
<svg xmlns="http://www.w3.org/2000/svg" xmlns:xlink="http://www.w3.org/1999/xlink" version="1.1" width="1080" height="1080" viewBox="0 0 1080 1080" xml:space="preserve">
<desc>Created with Fabric.js 5.2.4</desc>
<defs>
</defs>
<rect x="0" y="0" width="100%" height="100%" fill="transparent"></rect>
<g transform="matrix(1 0 0 1 540 540)" id="e7adc04a-99fa-480f-a5b3-e246a9d2b87e"  >
<rect style="stroke: none; stroke-width: 1; stroke-dasharray: none; stroke-linecap: butt; stroke-dashoffset: 0; stroke-linejoin: miter; stroke-miterlimit: 4; fill: rgb(255,255,255); fill-rule: nonzero; opacity: 1; visibility: hidden;" vector-effect="non-scaling-stroke"  x="-540" y="-540" rx="0" ry="0" width="1080" height="1080" />
</g>
<g transform="matrix(1 0 0 1 540 540)" id="866481f7-58e8-4430-97df-5cccd8bd5325"  >
</g>
<g transform="matrix(2.07 0 0 2.07 539.2 538.93)" id="2b3b3a2f-ea87-4ecd-82ac-a442f45cd9d9"  >
<path style="stroke: rgb(0,0,0); stroke-width: 0; stroke-dasharray: none; stroke-linecap: butt; stroke-dashoffset: 0; stroke-linejoin: miter; stroke-miterlimit: 4; fill: rgb(255,255,255); fill-rule: nonzero; opacity: 1;" vector-effect="non-scaling-stroke"  transform=" translate(-192, -256)" d="M 64 464 C 55.2 464 48 456.8 48 448 L 48 64 C 48 55.2 55.2 48 64 48 L 224 48 L 224 128 C 224 145.7 238.3 160 256 160 L 336 160 L 336 448 C 336 456.8 328.8 464 320 464 L 64 464 z M 64 0 C 28.7 0 0 28.7 0 64 L 0 448 C 0 483.3 28.7 512 64 512 L 320 512 C 355.3 512 384 483.3 384 448 L 384 154.5 C 384 137.5 377.3 121.2 365.3 109.2 L 274.7 18.7 C 262.7 6.7 246.5 0 229.5 0 L 64 0 z M 120 256 C 106.7 256 96 266.7 96 280 C 96 293.3 106.7 304 120 304 L 264 304 C 277.3 304 288 293.3 288 280 C 288 266.7 277.3 256 264 256 L 120 256 z M 120 352 C 106.7 352 96 362.7 96 376 C 96 389.3 106.7 400 120 400 L 264 400 C 277.3 400 288 389.3 288 376 C 288 362.7 277.3 352 264 352 L 120 352 z" stroke-linecap="round" />
</g>
</svg>