<svg xmlns="http://www.w3.org/2000/svg" xmlns:xlink="http://www.w3.org/1999/xlink" width="26" height="26" viewBox="0 0 26 26">
  <defs>
    <clipPath id="clip-path">
      <rect id="Capa_1" width="26" height="26" fill="none" style="isolation: isolate"/>
    </clipPath>
  </defs>
  <g id="Group_252" data-name="Group 252" style="isolation: isolate">
    <g id="Capa_1-2" data-name="Capa_1" clip-path="url(#clip-path)" style="isolation: isolate">
      <rect id="Capa_1-3" data-name="Capa_1" width="26" height="26" fill="none" style="isolation: isolate"/>
      <path id="Vector" d="M0,1.98c.02-.073.041-.145.06-.217A2.21,2.21,0,0,1,1.158.309,6.048,6.048,0,0,1,1.981,0H22.7a.175.175,0,0,0,.043.025,2.294,2.294,0,0,1,1.937,2.5q0,5.509,0,11.017a.759.759,0,0,0,.1.379A7.869,7.869,0,0,1,14.031,24.839a1.02,1.02,0,0,0-.567-.162q-5.547.007-11.094,0A2.3,2.3,0,0,1,.116,23.112C.071,22.976.039,22.837,0,22.7H0ZM11.783,18.127a6.348,6.348,0,1,0,6.352-6.344A6.358,6.358,0,0,0,11.783,18.127ZM11.3,1.523H2.413a.784.784,0,0,0-.889.887v8.913c0,.081.007.162.011.243H11.567V1.523H11.3ZM23.16,11.807V2.413a.784.784,0,0,0-.887-.889H13.361c-.081,0-.162.007-.238.011V12.007a8,8,0,0,1,10.038.015h0ZM1.525,13.12v.168q0,4.519,0,9.038a.769.769,0,0,0,.844.83q4.736,0,9.47,0c.062,0,.124-.01.214-.017-.064-.086-.108-.147-.153-.2a7.82,7.82,0,0,1-.556-8.77,1.535,1.535,0,0,0,.219-1.045H1.525Z" transform="translate(-0.001)" fill="#1c1b1a" style="isolation: isolate"/>
      <path id="Vector-2" data-name="Vector" d="M.841,1.523A.772.772,0,0,1,0,.769.772.772,0,0,1,.852,0Q2.538,0,4.223,0a.772.772,0,0,1,.854.767.776.776,0,0,1-.865.756c-.558,0-1.115,0-1.673,0S1.407,1.525.841,1.523Z" transform="translate(15.593 16.098)" fill="#1c1b1a" style="isolation: isolate"/>
      <path id="Vector-3" data-name="Vector" d="M4.234,0a.771.771,0,0,1,.843.752.772.772,0,0,1-.851.77q-1.685,0-3.371,0A.773.773,0,0,1,0,.758.777.777,0,0,1,.864,0c.558,0,1.115,0,1.672,0h0C3.1,0,3.667,0,4.234,0Z" transform="translate(15.594 18.637)" fill="#1c1b1a" style="isolation: isolate"/>
      <path id="Vector-4" data-name="Vector" d="M4.281,1.776a.762.762,0,1,1,0,1.522c-.3,0-.609,0-.913.006a.53.53,0,0,0-.063.014c0,.29,0,.591,0,.891a.767.767,0,1,1-1.523.008c0-.3,0-.59,0-.919-.316,0-.617,0-.918,0a.767.767,0,1,1,0-1.522h.913c0-.329,0-.639,0-.949A.763.763,0,1,1,3.3.819c0,.311,0,.621,0,.958v0C3.654,1.775,3.967,1.771,4.281,1.776Z" transform="translate(4.014 4.015)" fill="#1c1b1a" style="isolation: isolate"/>
      <path id="Vector-5" data-name="Vector" d="M3.728,0a.771.771,0,0,1,.841.754.766.766,0,0,1-.826.768q-1.457,0-2.914,0A.769.769,0,0,1,0,.756.772.772,0,0,1,.839,0C1.321,0,1.8,0,2.284,0S3.247,0,3.728,0Z" transform="translate(15.846 5.789)" fill="#1c1b1a" style="isolation: isolate"/>
      <path id="Vector-6" data-name="Vector" d="M2.715.272A.763.763,0,1,1,3.8,1.341c-.218.223-.45.434-.7.672.264.268.514.5.744.758a.753.753,0,0,1-.364,1.265.743.743,0,0,1-.741-.221c-.229-.225-.452-.456-.724-.731-.249.263-.472.526-.724.758A.751.751,0,0,1,.025,3.48a.742.742,0,0,1,.221-.741C.472,2.51.7,2.287.973,2.02.718,1.775.466,1.552.236,1.31A.755.755,0,0,1,.581.026a.744.744,0,0,1,.742.22c.229.225.451.457.722.733h0C2.286.724,2.494.492,2.715.272Z" transform="translate(4.521 16.099)" fill="#1c1b1a" style="isolation: isolate"/>
    </g>
  </g>
</svg>
