<svg xmlns="http://www.w3.org/2000/svg" width="666.667" height="666.667" xmlns:v="https://vecta.io/nano"><defs><clipPath id="A"><path d="M0 500h500V0H0z"/></clipPath><clipPath id="B"><path d="M76.435 304.855c-.476-3.175-.755-6.215-.848-9.128h0c2.937-3.319 5.277-5.337 5.277-5.337h0c-1.738.561-3.578 1.564-5.313 2.693h0c.01-4.08.321-7.954.909-11.637h0c4.106-3.279 7.429-5.153 7.429-5.153h0c-2.164.223-4.603 1.054-6.847 2.026h0a70.15 70.15 0 0 1 3.53-11.926h0c4.896-2.986 8.872-4.521 8.872-4.521h0c-2.276-.113-4.956.402-7.407 1.086h0a72.05 72.05 0 0 1 6.164-10.858h0c.427-.617.88-1.216 1.326-1.82h0c5.183-1.981 9.207-2.736 9.207-2.736h0c-2.017-.503-4.461-.534-6.791-.367h0c2.711-3.293 5.734-6.372 9.11-9.209h0c6.256-.897 11.125-.536 11.125-.536h0c-2.094-1.186-4.895-1.891-7.485-2.316h0c1.511-1.111 3.066-2.191 4.71-3.208h0a70.12 70.12 0 0 1 5.935-3.313h0c7.355-1.387 13.506-.935 13.506-.935h0c-1.831-1.037-4.202-1.705-6.5-2.142h0l1.987-.732h0a78.63 78.63 0 0 1 8.95-2.539h0c3.181-.71 6.538-1.3 10.453-1.505h0c1.212 3.73 1.863 7.075 2.34 10.3h0c.477 3.225.748 6.31.834 9.265h0l.028 2.118h0c-1.231-1.989-2.704-3.965-4.327-5.302h0s2.624 5.58 3.963 12.947h0c-.224 2.309-.544 4.553-.968 6.726h0c-.362 1.899-.815 3.738-1.309 5.547h0c-1.325-2.266-2.985-4.63-4.843-6.161h0s2.081 4.418 3.483 10.581h0c-1.439 4.168-3.232 8.092-5.336 11.802h0c-.678-2.234-1.582-4.504-2.775-6.208h0s.737 4.028.742 9.576h0l-1.223 1.89h0a72.22 72.22 0 0 1-7.932 9.644h0c-.238-2.535-.716-5.221-1.638-7.306h0s-.009 4.263-1.044 9.903h0c-2.98 2.736-6.254 5.269-9.871 7.566h0c.104-2.443.006-5.018-.561-7.119h0s-.558 3.774-2.151 8.782h0c-3.228 1.868-6.733 3.546-10.54 5.015h0c.433-2.024.711-4.1.612-5.924h0s-1.045 2.908-3.093 6.838h0c-2.753.956-5.691 1.784-8.826 2.477h0c-3.19.704-6.557 1.287-10.49 1.48h0c-1.226-3.74-1.89-7.094-2.374-10.324"/></clipPath><clipPath id="C"><path d="M0 500h500V0H0z"/></clipPath><clipPath id="D"><path d="M78.809 315.179h68.127v-94.437H78.809z"/></clipPath><clipPath id="E"><path d="M453.333 236.198a78.72 78.72 0 0 1-8.805-2.554h0c-2.011-3.95-3.031-6.867-3.031-6.867h0c-.116 1.823.144 3.903.559 5.93h0c-3.795-1.503-7.283-3.212-10.495-5.109h0c-1.547-5.022-2.074-8.8-2.074-8.8h0c-.585 2.094-.704 4.668-.624 7.113h0a70.26 70.26 0 0 1-9.802-7.653h0c-.986-5.651-.956-9.912-.956-9.912h0c-.94 2.076-1.442 4.759-1.704 7.289h0c-2.916-3.034-5.53-6.272-7.845-9.713h0c-.418-.623-.808-1.264-1.206-1.901h0c.054-5.548.827-9.568.827-9.568h0c-1.207 1.692-2.131 3.954-2.831 6.183h0c-2.07-3.729-3.827-7.67-5.229-11.85h0c1.456-6.149 3.575-10.548 3.575-10.548h0c-1.87 1.514-3.552 3.863-4.896 6.116h0c-.478-1.813-.914-3.655-1.259-5.558h0c-.405-2.177-.706-4.423-.909-6.736h0c1.405-7.352 4.078-12.909 4.078-12.909h0c-1.634 1.323-3.125 3.285-4.373 5.262h0l.046-2.116h0c.112-2.956.411-6.036.917-9.258h0c.506-3.221 1.186-6.56 2.431-10.278h0c3.912.24 7.264.859 10.439 1.597h0a79.04 79.04 0 0 1 8.928 2.618h0l1.979.751h0c-2.301.416-4.678 1.063-6.518 2.082h0s6.154-.396 13.498 1.056h0c2.067 1.055 4.038 2.176 5.904 3.366h0c1.636 1.033 3.181 2.127 4.682 3.25h0c-2.594.401-5.402 1.083-7.507 2.249h0s4.874-.317 11.122.637h0c3.35 2.865 6.345 5.971 9.027 9.288h0c-2.329-.188-4.772-.178-6.794.307h0s4.017.791 9.183 2.818h0l1.31 1.83h0a72.38 72.38 0 0 1 6.066 10.914h0c-2.446-.705-5.12-1.245-7.396-1.151h0s3.961 1.57 8.83 4.598h0a70.12 70.12 0 0 1 3.424 11.958h0c-2.236-.992-4.667-1.845-6.828-2.088h0s3.306 1.904 7.382 5.22h0c.556 3.689.832 7.564.805 11.645h0c-1.725-1.144-3.556-2.164-5.289-2.74h0s2.323 2.039 5.23 5.384h0c-.119 2.91-.425 5.949-.929 9.12h0c-.513 3.225-1.206 6.572-2.466 10.301h0c-3.93-.228-7.293-.841-10.476-1.573"/></clipPath><clipPath id="F"><path d="M0 500h500V0H0z"/></clipPath><clipPath id="G"><path d="M399.726 237.772h67.538v-95.011h-67.538z"/></clipPath><clipPath id="H"><path d="M124.672 247.164H103.35L70.612 94.199c27.154-5.853 54.06-5.853 54.06-5.853h0s26.905 0 54.059 5.853h0l-32.738 152.965z"/></clipPath><clipPath id="I"><path d="M0 500h500V0H0z"/></clipPath><clipPath id="J"><path d="M133.364 247.164h45.367V88.595h-45.367z"/></clipPath><clipPath id="K"><path d="M82.043 225.909h29.584v-119.37H82.043z"/></clipPath><path id="L" d="M152.447 338.449a5.94 5.94 0 0 0-5.94-5.939 5.94 5.94 0 0 0-5.939 5.939 5.94 5.94 0 0 0 5.939 5.939 5.94 5.94 0 0 0 5.94-5.939"/></defs><g transform="matrix(1.333333 0 0 -1.333333 0 666.66667)"><path d="M0 0h500v500H0z" fill="#fff"/><g clip-path="url(#A)"><g fill="#ff735e"><path d="M89.572 214.161l-.764 1.038c-2.906 3.861-5.99 7.589-9.244 11.159.081 7.194-.091 34.4-7.38 32.999-6.732-1.293 2.055-22.833 5.803-31.323-1.42 1.512-2.868 2.996-4.351 4.446-4.918 6.384-21.453 26.944-26.3 21.377-4.491-5.156 15.162-16.536 23.799-21.181 1.604-1.531 3.18-3.09 4.711-4.692-8.324 4.157-29.077 13.764-30.921 7.199-2.001-7.118 25.135-8.624 32.508-8.9 3.829-4.132 7.426-8.476 10.787-13.003-7.455 4.723-28.089 17.052-30.628 10.542-2.721-6.974 24.859-11.145 31.761-12.075 3.627-5.007 6.969-10.224 10.034-15.596-7.127 6.04-24.93 20.234-28.276 14.308-3.633-6.432 22.31-14.338 29.437-16.37l1.465-2.687a195.84 195.84 0 0 0 6.734-14.016c-6.46 6.331-23.707 22.324-27.52 16.556-4.091-6.19 21.488-15.952 28.318-18.424a187.15 187.15 0 0 0 7.769-22.283c-5.518 7.186-20.33 25.404-24.91 20.232-4.919-5.555 19.043-18.811 25.46-22.217l.266-.956c.677-2.597 1.336-5.217 1.796-7.863.176-1.013 1.754-.77 1.578.245a100.6 100.6 0 0 1-1.719 7.85c3.274 6.584 14.823 30.917 7.687 32.823-6.495 1.735-8.039-20.555-8.402-30.165-1.218 4.332-2.644 8.613-4.137 12.806-1.069 3.003-2.214 5.981-3.425 8.934 2.251 6.758 10.44 32.828 3.055 33.72-6.741.816-5.044-21.924-4.06-31.324-2.362 5.546-4.979 10.986-7.857 16.282 1.774 6.899 8.121 33.48.691 33.854-6.854.346-3.427-22.714-1.808-31.828-3.137 5.603-6.568 11.041-10.301 16.262.812 7.5 3.167 33.998-4.144 33.324-6.654-.613-.512-21.819 2.488-31.053m344.858 43.826l.546 1.167c2.004 4.398 3.805 8.888 5.387 13.452 6.358 3.366 30.174 16.516 25.462 22.251-4.352 5.295-19.077-12.715-24.744-20.064a146.71 146.71 0 0 1 1.828 5.946c3.257 7.371 13.418 31.72 6.212 33.318-6.675 1.481-7.282-21.221-7.236-31.027a145.19 145.19 0 0 0-1.87-6.381c-.326 9.299-1.802 32.12-8.45 30.604-7.209-1.644 4.433-26.201 7.713-32.811-1.799-5.338-3.899-10.573-6.268-15.688.586 8.805 1.558 32.822-5.374 31.942-7.426-.942 2.087-27.163 4.567-33.67-2.664-5.579-5.65-11.007-8.905-16.267 1.901 9.148 5.862 31.569-.941 31.677-7.386.117-1.936-26.449-.317-33.681l-1.659-2.571a195.38 195.38 0 0 0-9.096-12.613c2.475 8.699 8.284 31.493 1.396 32.086-7.394.637-3.747-26.498-2.655-33.679-4.917-6.152-10.219-11.998-15.863-17.471 3.675 8.28 12.603 29.997 5.871 31.548-7.23 1.668-7.426-25.715-7.352-32.981l-.714-.69c-1.957-1.835-3.944-3.666-6.049-5.335-.804-.638.163-1.909.97-1.268 2.092 1.658 4.109 3.428 6.075 5.26 7.348.27 34.241 1.751 32.507 8.93-1.579 6.535-21.898-2.759-30.514-7.031 3.224 3.139 6.302 6.438 9.273 9.752 2.127 2.373 4.196 4.803 6.211 7.278 7.013 1.25 33.827 6.513 31.083 13.427-2.505 6.312-21.671-6.045-29.457-11.399a190.19 190.19 0 0 1 10.549 14.681c6.907 1.738 33.291 8.863 30.07 15.568-2.972 6.186-21.592-7.842-28.824-13.619 3.423 5.433 6.56 11.046 9.364 16.819 6.976 2.871 31.378 13.462 27.294 19.562-3.717 5.553-19.412-9.974-26.09-17.022"/></g><path d="M142.609 237.123s2.624 5.58 3.963 12.946l-.969 6.727-1.308 5.547c-1.325-2.266-2.986-4.63-4.843-6.16 0 0 2.08 4.418 3.483 10.58-1.439 4.168-3.232 8.092-5.336 11.802-.679-2.234-1.583-4.504-2.775-6.208 0 0 .736 4.028.742 9.576l-1.223 1.89a72.16 72.16 0 0 1-7.932 9.643c-.239-2.534-.717-5.22-1.638-7.304 0 0-.009 4.261-1.044 9.902-2.98 2.736-6.254 5.269-9.871 7.566.104-2.444.006-5.018-.561-7.119 0 0-.559 3.774-2.151 8.783-3.228 1.867-6.733 3.545-10.54 5.015.433-2.024.711-4.102.611-5.925 0 0-1.045 2.907-3.092 6.838-2.753.956-5.692 1.784-8.827 2.477-3.189.704-6.557 1.286-10.489 1.48-1.227-3.741-1.89-7.094-2.374-10.324-.476-3.175-.755-6.215-.848-9.127 2.937-3.32 5.277-5.337 5.277-5.337-1.738.56-3.578 1.563-5.313 2.692.01-4.08.321-7.954.908-11.637 4.107-3.28 7.43-5.154 7.43-5.154-2.164.224-4.603 1.055-6.848 2.026.85-4.199 2.043-8.164 3.53-11.925 4.896-2.987 8.872-4.521 8.872-4.521-2.276-.113-4.955.402-7.407 1.086 1.756-3.825 3.812-7.444 6.164-10.858.428-.617.881-1.216 1.326-1.82 5.183-1.981 9.207-2.736 9.207-2.736-2.017-.503-4.46-.533-6.79-.367 2.711-3.293 5.733-6.372 9.109-9.209 6.256-.897 11.126-.536 11.126-.536-2.094-1.186-4.896-1.891-7.486-2.316 1.512-1.11 3.066-2.19 4.711-3.208 1.877-1.175 3.857-2.277 5.934-3.313 7.356-1.387 13.506-.936 13.506-.936-1.83-1.036-4.201-1.704-6.499-2.141l1.986-.732c2.791-.978 5.767-1.83 8.95-2.539s6.538-1.3 10.454-1.505c1.211 3.73 1.862 7.075 2.339 10.3s.748 6.31.834 9.266l.028 2.117c-1.23-1.989-2.703-3.965-4.326-5.302" fill="#6680e1"/></g><g clip-path="url(#B)"><path d="M132.732 291.894l-1.024.117c-.008-.179-.874-17.908-12.687-34.439l-8.873 12.905c12.162 16.916 10.644 38.652 10.627 38.871l-1.022-.011c.017-.214 1.488-21.337-10.251-37.92l-7.894 11.482c12.114 17.039.657 41.07.539 41.311l-.911-.417c.114-.235 11.157-23.426-.276-39.95l-8.464 12.31c4.45 16.923-7.097 38.261-7.215 38.475l-.885-.468c.113-.207 11.077-20.483 7.306-36.852l-17.435 25.36-.824-.566 17.435-25.361c-16.634 2.341-31.64 19.838-31.792 20.018l-.754-.658c.158-.187 15.946-18.61 33.339-20.514l8.464-12.311c-19.522-4.758-37.221 13.857-37.4 14.048l-.715-.701c.183-.197 18.517-19.5 38.764-14.291l7.894-11.481c-19.675-5.019-38.882 3.915-39.076 4.006l-.376-.949c.198-.095 19.949-9.295 40.098-3.997l8.872-12.905c-19.65-5.106-36.528.429-36.698.486l-.257-.999c.173-.057 17.512-5.756 37.6-.425l6.675-9.709c-19.641-5.194-34.202-3.059-34.348-3.037l-.084-1.04c.148-.023 15.061-2.219 35.076 3.141l7.28-10.589c-16.458-4.33-28.65-2.555-28.773-2.535l-.084-1.04c.126-.021 12.668-1.861 29.502 2.637l6.065-8.823c-10.334-2.753-17.929-1.742-18.005-1.731l-.073-1.042c.326-.046 8.022-1.08 18.722 1.838l11.82-17.194.824.567-11.821 17.193c6.556 8.945 8.346 16.501 8.42 16.821l-.999.307c-.017-.076-1.793-7.529-8.064-16.192l-6.065 8.823c10.227 14.106 13 26.475 13.027 26.6l-1.002.295c-.026-.122-2.734-12.142-12.671-25.957l-7.28 10.588c12.172 16.77 15.462 31.479 15.494 31.626l-1.001.294c-.033-.144-3.253-14.505-15.136-30.983l-6.675 9.709c12.171 16.847 13.06 35.076 13.067 35.259" fill="#abcafb"/></g><g clip-path="url(#C)"><g clip-path="url(#D)" opacity=".1"><path d="M135.566 281.933l-1.223 1.89a72.16 72.16 0 0 1-7.932 9.643c-.239-2.534-.717-5.22-1.638-7.304 0 0-.009 4.261-1.044 9.902-2.98 2.736-6.254 5.269-9.871 7.566.104-2.444.006-5.018-.561-7.119 0 0-.559 3.774-2.151 8.783-3.228 1.867-6.733 3.545-10.54 5.014.433-2.023.71-4.101.611-5.924 0 0-1.045 2.907-3.092 6.838-2.753.956-5.692 1.784-8.827 2.477-3.189.704-6.557 1.286-10.489 1.48l64.925-94.437c1.211 3.73 1.862 7.075 2.339 10.3s.748 6.309.834 9.265l.028 2.118c-1.23-1.99-2.703-3.965-4.326-5.302 0 0 2.624 5.58 3.963 12.946-.224 2.31-.545 4.554-.969 6.727-.362 1.899-.814 3.738-1.308 5.547-1.325-2.266-2.986-4.63-4.843-6.16 0 0 2.08 4.417 3.483 10.58-1.439 4.168-3.232 8.092-5.336 11.802-.679-2.235-1.583-4.505-2.775-6.208 0 0 .736 4.028.742 9.576" fill="#0044a4"/></g><path d="M414.556 149.81s6.153-.396 13.497 1.056a70.47 70.47 0 0 1 5.904 3.366l4.683 3.25c-2.595.401-5.402 1.082-7.507 2.249 0 0 4.873-.317 11.121.636a70.51 70.51 0 0 1 9.027 9.289c-2.329-.188-4.772-.178-6.793.306 0 0 4.016.791 9.182 2.819l1.31 1.83c2.321 3.436 4.345 7.073 6.066 10.914-2.445-.706-5.119-1.246-7.396-1.152 0 0 3.962 1.57 8.831 4.599a70.29 70.29 0 0 1 3.424 11.957c-2.237-.992-4.668-1.845-6.829-2.087 0 0 3.306 1.904 7.382 5.22.556 3.688.832 7.563.805 11.644-1.725-1.144-3.556-2.164-5.288-2.74 0 0 2.322 2.039 5.229 5.384-.119 2.911-.425 5.949-.929 9.12-.513 3.226-1.206 6.572-2.466 10.302-3.93-.229-7.293-.841-10.476-1.573-3.129-.721-6.06-1.576-8.804-2.555-2.012-3.949-3.032-6.866-3.032-6.866-.116 1.822.144 3.902.559 5.929-3.794-1.502-7.283-3.211-10.495-5.108-1.547-5.022-2.073-8.801-2.073-8.801-.585 2.095-.705 4.669-.624 7.114-3.596-2.33-6.848-4.892-9.803-7.654-.985-5.65-.956-9.912-.956-9.912-.94 2.076-1.442 4.759-1.703 7.29-2.916-3.035-5.531-6.273-7.846-9.714-.417-.623-.808-1.263-1.206-1.9.055-5.548.827-9.568.827-9.568-1.207 1.692-2.131 3.954-2.83 6.182a70.6 70.6 0 0 1-5.23-11.849c1.457-6.15 3.576-10.548 3.576-10.548-1.87 1.513-3.553 3.862-4.897 6.116-.478-1.814-.914-3.655-1.259-5.559a70.53 70.53 0 0 1-.909-6.735c1.406-7.353 4.078-12.91 4.078-12.91-1.634 1.323-3.125 3.285-4.373 5.263l.046-2.117c.113-2.955.411-6.036.917-9.258s1.187-6.559 2.431-10.278c3.913.24 7.265.86 10.439 1.598s6.146 1.615 8.928 2.618l1.98.75c-2.302.416-4.679 1.063-6.518 2.083" fill="#6680e1"/></g><g clip-path="url(#E)"><path d="M461.899 179.067l-.267.995c-.17-.058-16.982-5.747-36.692-.812l8.757 12.984c20.195-5.119 39.864 4.257 40.061 4.354l-.384.946c-.194-.094-19.309-9.202-39.039-4.355l7.792 11.552c20.292-5.029 38.453 14.436 38.635 14.635l-.721.693c-.178-.191-17.711-18.964-37.275-14.379l8.354 12.386c17.377 2.059 33 20.621 33.156 20.81l-.76.651c-.151-.182-15-17.812-31.613-20.301l17.209 25.515-.829.559-17.209-25.514c-3.916 16.335 6.866 36.708 6.978 36.916l-.888.46c-.117-.215-11.474-21.656-6.873-38.537l-8.354-12.386c-11.58 16.422-.744 39.71-.632 39.947l-.914.408c-.116-.243-11.359-24.374.906-41.304l-7.792-11.552c-11.877 16.468-10.602 37.612-10.588 37.827l-1.022.002c-.015-.219-1.339-21.968 10.974-38.774l-8.758-12.985c-11.95 16.414-12.984 34.147-12.994 34.325l-1.023-.126c.009-.182 1.061-18.403 13.38-35.142l-6.588-9.768c-12.029 16.373-15.378 30.703-15.411 30.848l-.998-.303c.033-.147 3.454-14.827 15.775-31.486l-7.186-10.653c-10.06 13.726-12.874 25.721-12.901 25.843l-.999-.303c.027-.125 2.911-12.469 13.263-26.485l-5.987-8.876c-6.348 8.607-8.189 16.044-8.208 16.119l-.995-.314c.076-.32 1.933-7.859 8.568-16.746l-11.667-17.298.829-.56 11.667 17.299c10.726-2.823 18.411-1.719 18.737-1.671l-.081 1.041c-.077-.011-7.663-1.089-18.021 1.572l5.987 8.876c16.873-4.348 29.399-2.397 29.524-2.375l-.093 1.04c-.123-.021-12.299-1.906-28.794 2.278l7.186 10.653c20.061-5.18 34.953-2.852 35.102-2.828l-.094 1.039c-.145-.023-14.687-2.288-34.374 2.731l6.588 9.768c20.136-5.151 37.423.7 37.596.761" fill="#abcafb"/></g><g clip-path="url(#F)"><g clip-path="url(#G)" opacity=".1"><path d="M453.67 172.78l1.31 1.83c2.321 3.437 4.344 7.073 6.066 10.914-2.445-.706-5.119-1.246-7.397-1.151 0 0 3.962 1.569 8.832 4.598 1.454 3.776 2.611 7.75 3.423 11.957-2.236-.992-4.668-1.844-6.829-2.086 0 0 3.307 1.903 7.383 5.219.556 3.689.832 7.564.805 11.645-1.725-1.145-3.556-2.164-5.288-2.74 0 0 2.322 2.039 5.229 5.383-.119 2.911-.426 5.95-.93 9.12-.512 3.226-1.206 6.573-2.465 10.302l-64.082-95.011c3.913.241 7.264.86 10.439 1.598s6.146 1.615 8.928 2.618l1.979.75c-2.301.416-4.678 1.064-6.517 2.083 0 0 6.153-.396 13.497 1.056 2.067 1.055 4.038 2.176 5.904 3.366 1.636 1.033 3.181 2.127 4.683 3.25-2.595.402-5.403 1.082-7.507 2.249 0 0 4.873-.317 11.121.636a70.5 70.5 0 0 1 9.026 9.289c-2.328-.188-4.771-.178-6.793.307 0 0 4.017.791 9.183 2.818" fill="#0044a4"/></g><path d="M479.709 83.388c0-9.424-102.845-17.063-229.709-17.063S20.292 73.964 20.292 83.388 123.135 100.452 250 100.452s229.709-7.639 229.709-17.064" fill="#ecf0fd"/><path d="M420.413 92.427H128.93V353.91h291.483z" fill="#f4f9ff"/><path d="M420.413 322.988H128.93v30.922h291.483z" fill="#cddcf8"/><use href="#L" fill="#ff735e"/><path d="M172.447 338.449a5.94 5.94 0 0 0-5.94-5.939 5.94 5.94 0 0 0-5.939 5.939 5.94 5.94 0 0 0 5.939 5.939 5.94 5.94 0 0 0 5.94-5.939" fill="#ffad36"/><path d="M192.447 338.449a5.94 5.94 0 0 0-5.94-5.939 5.94 5.94 0 0 0-5.939 5.939 5.94 5.94 0 0 0 5.939 5.939 5.94 5.94 0 0 0 5.94-5.939" fill="#6680e1"/><g fill="#ffd06e"><path d="M377.701 233.714c1.396 3.542-.575 6.44-4.383 6.44h-140.3c-3.807 0-8.065-2.898-9.462-6.44l-31.099-78.866c-1.396-3.542.576-6.44 4.383-6.44h140.3c3.807 0 8.065 2.898 9.461 6.44zm-191.969-72.141l31.099 78.867c1.397 3.541 5.654 6.44 9.462 6.44H336.43v6.988c0 3.808-3.115 6.922-6.922 6.922h-49.13c-3.808 0-8.408 2.738-10.225 6.084l-6.689 12.323c-1.816 3.346-6.418 6.083-10.225 6.083h-63.124c-3.807 0-6.923-3.115-6.923-6.922V162.055c0-3.343 2.404-6.151 5.567-6.786-2.897.61-4.247 3.211-3.027 6.304"/></g><g fill="#ff735e"><path d="M300.468 183.142l-3.77-3.769-9.029 9.03-9.03-9.03-3.769 3.769 9.03 9.029-9.03 9.03 3.769 3.769 9.03-9.029 9.029 9.029 3.77-3.769-9.03-9.03zm-12.799 35.188c-14.446 0-26.158-11.712-26.158-26.159s11.712-26.157 26.158-26.157 26.157 11.711 26.157 26.157-11.711 26.159-26.157 26.159M200.523 91.484c0-6.846-30.876-12.395-75.852-12.395S48.82 84.638 48.82 91.484s30.876 12.394 75.851 12.394 75.852-5.549 75.852-12.394"/></g><path d="M145.993 247.164h-21.321-21.322L70.612 94.198c27.154-5.852 54.06-5.852 54.06-5.852s26.905 0 54.059 5.852z" fill="#ffd06e"/><path d="M145.993 247.164c0-1.792-9.546-3.245-21.321-3.245s-21.322 1.453-21.322 3.245 9.546 3.245 21.322 3.245 21.321-1.453 21.321-3.245" fill="#ff735e"/></g><g clip-path="url(#H)" fill="#ffad36"><path d="M123.743 100.925c-43.89 0-73.529 7.335-75.37 7.803l6.106 24.047-3.053-12.024 3.04 12.027c.629-.159 63.888-15.662 141.086.126l4.971-24.307c-28.111-5.749-54.314-7.672-76.78-7.672m0 53.978c-43.89 0-73.529 7.336-75.37 7.803l6.106 24.047-3.053-12.024 3.04 12.028c.629-.159 63.888-15.662 141.086.126l4.971-24.307c-28.111-5.75-54.314-7.673-76.78-7.673m0 53.979c-43.89 0-73.529 7.336-75.37 7.804l6.106 24.047-3.053-12.024 3.04 12.027c.629-.159 63.888-15.662 141.086.126l4.971-24.307c-28.111-5.749-54.314-7.673-76.78-7.673"/></g><g clip-path="url(#I)"><g clip-path="url(#J)" opacity=".1"><path d="M151.323 173.358c0-33.261-6.885-63.305-17.958-84.764 10.109.464 27.682 1.792 45.366 5.604l-32.738 152.966h-7.638c8.113-20.216 12.968-45.875 12.968-73.806" fill="#0044a4"/></g><g clip-path="url(#K)" opacity=".3"><path d="M105.666 223.563l-2.338-11.276-5.615-27.086-6.827-32.93-5.875-28.336c-.948-4.573-2.118-9.159-2.855-13.772-.011-.065-.027-.129-.041-.194-.783-3.781 5.109-4.853 5.89-1.084l2.338 11.276 5.615 27.086 6.828 32.929 5.874 28.336c.948 4.573 2.118 9.159 2.856 13.773.01.065.026.13.04.194.784 3.78-5.108 4.854-5.89 1.084" fill="#fff"/></g><path d="M407.146 124.82L265.754 84.454l-2.479 8.684 141.392 40.367z" fill="#6680e1"/><g fill="#ff735e"><path d="M407.146 124.82l-64.478-18.408-2.479 8.684 64.478 18.409z"/><path d="M449.43 141.588c6.862-24.037-7.061-49.086-31.098-55.948s-49.086 7.06-55.948 31.097 7.061 49.086 31.098 55.949 49.086-7.061 55.948-31.098"/></g><path d="M440.941 139.165c5.523-19.35-5.684-39.513-25.032-45.037s-39.513 5.683-45.037 25.032 5.683 39.513 25.032 45.037 39.513-5.683 45.037-25.032" fill="#cddcf8"/><path d="M433.294 136.981l-4.343-1.239c-3.627 12.706-16.917 20.093-29.624 16.465l-1.239 4.341c15.102 4.312 30.894-4.466 35.206-19.567" fill="#fff"/><path d="M372.173 355.558l-43.321 13.134-26.05-85.924 67.315-20.408 18.98 62.605z" fill="#e1e7ff"/><path d="M367.797 321.595l-3.096 5.79-13.87-7.416-7.417 13.869-5.789-3.096 7.417-13.869-13.87-7.417 3.096-5.789 13.87 7.417 7.417-13.87 5.789 3.096-7.417 13.869z" fill="#c8d3fb"/><path d="M257.214 414.392l-43.982-10.714 21.249-87.235 68.341 16.648-15.482 63.559z" fill="#e1e7ff"/><path d="M270.711 382.92l-5.608 3.412-8.174-13.438-13.439 8.173-3.411-5.608 13.438-8.173-8.174-13.438 5.609-3.411 8.174 13.437 13.438-8.173 3.411 5.609-13.438 8.173z" fill="#c8d3fb"/><g fill="#e1e7ff"><path d="M411.337 406.537h-11.181v11.181h-3.979v-11.181h-11.18v-3.979h11.18v-11.18h3.979v11.18h11.181zm25.041-38.47h-6.091v6.09h-2.167v-6.09h-6.09V365.9h6.09v-6.09h2.167v6.09h6.091zm-67.206 10.626h-7.376v7.375h-2.624v-7.375h-7.375v-2.625h7.375v-7.375h2.624v7.375h7.376zm-279.21 1.15H78.781v11.181h-3.98v-11.181H63.622v-3.979h11.179v-11.181h3.98v11.181h11.181zm48.801 6.673h-6.09v6.09h-2.168v-6.09h-6.089v-2.167h6.089v-6.09h2.168v6.09h6.09zm-37.078-49.662H94.31v7.375h-2.625v-7.375H84.31v-2.625h7.375v-7.374h2.625v7.374h7.375z"/></g><g fill="#c8d3fb"><path d="M346.53 425.044c0-1.338-1.086-2.424-2.424-2.424s-2.424 1.086-2.424 2.424 1.085 2.424 2.424 2.424 2.424-1.086 2.424-2.424m109.452-87.147a4.59 4.59 0 1 0-9.18 0 4.59 4.59 0 0 0 9.18 0m-145.289 61.87c0-1.338-1.085-2.423-2.424-2.423s-2.424 1.085-2.424 2.423 1.085 2.424 2.424 2.424 2.424-1.085 2.424-2.424m-138.034 25.277a4.59 4.59 0 1 0-9.18 0 4.59 4.59 0 1 0 9.18 0"/><path d="M190.493 376.38c0-1.338-1.085-2.423-2.424-2.423s-2.423 1.085-2.423 2.423 1.085 2.424 2.423 2.424 2.424-1.085 2.424-2.424M48.865 329.443c0-1.338-1.085-2.424-2.424-2.424s-2.423 1.086-2.423 2.424 1.085 2.424 2.423 2.424 2.424-1.085 2.424-2.424"/></g></g></g></svg>