<svg xmlns="http://www.w3.org/2000/svg" width="244" height="290.768" xmlns:v="https://vecta.io/nano"><style><![CDATA[.B{fill:#3f3d56}.C{fill:#e6e6e6}.D{fill:#a0616a}.E{fill:#2f2e41}.F{fill:#ff6584}]]></style><path d="M94.512 238.653c-5.113-5.113-12.069-7.952-19.3-7.878h-.286a27.56 27.56 0 0 1-13.894-3.752l-.439-.256.353-.364c1.913-1.98 3.511-4.242 4.737-6.707-1.763 1.644-4.165 2.42-6.556 2.118a8.32 8.32 0 0 1-6.106-3.911c-2.59-4.2-5.678-10.167-5.678-14.71.008-7.765 3.281-15.168 9.019-20.4 3.634-3.276 5.701-7.944 5.687-12.836v-.344c0-3.187.389-6.362 1.16-9.454l.077-.306.321.011a26.4 26.4 0 0 0 6.172-.517 20.83 20.83 0 0 1-5.535-1.472l-.345-.14.117-.354c8.08-5 26.32-2.412 36.907-26.635 8.585-19.641 38.874 17.435 38.874 38.867 0 2.187-2.164 5.077-.544 6.522 17.511 15.624 5.424 25.654 1.617 35.754-.9 2.4 1.056 5.025 1.056 7.616a28.07 28.07 0 0 1-.033 1.349l-.034.7-.584-.389c-1.155-.757-2.226-1.635-3.194-2.62 2.034 4.681 1.837 10.033-.535 14.552-1.31 2.75-3.096 5.245-5.277 7.371a27.56 27.56 0 0 1-37.757-1.814z" fill="#df3d24"/><path d="M123.833 290.769a.5.5 0 0 0 .49-.426c1.297-11.567 1.374-23.239.231-34.822-1.712-18.273-7.21-44.593-23.681-66.209a.5.5 0 0 0-.904.075.5.5 0 0 0 .115.525c16.329 21.429 21.782 47.556 23.483 65.7a164.96 164.96 0 0 1-.226 34.59.5.5 0 0 0 .492.566z" class="B"/><path d="M110.392 219.802a.5.5 0 0 0 .292-.9 68.37 68.37 0 0 0-15.093-7.683c-8.327-3.049-20.99-5.812-34.026-1.664a.5.5 0 1 0 .3.945c12.769-4.064 25.2-1.346 33.384 1.65 5.244 1.893 10.233 4.43 14.851 7.554.084.063.187.097.292.098zm22.703-56.546a.5.5 0 0 0-.874-.356 68.37 68.37 0 0 0-8.75 14.5c-3.64 8.086-7.309 20.517-4.11 33.818a.5.5 0 1 0 .964-.232c-3.134-13.028.473-25.234 4.05-33.179 2.264-5.094 5.153-9.888 8.6-14.269.069-.079.111-.178.12-.282z" fill="#fff"/><path d="M228.775 290.243h-39.492l-.17-.308-1.448-2.883c-4.068-8.708-5.787-18.668-7.3-27.455l-1.142-6.623a4.09 4.09 0 0 1 6.438-4q9 6.55 18.011 13.088c2.274 1.655 4.871 3.57 7.358 5.639l.742-3.487a4.09 4.09 0 0 1 7.474-1.292l4.62 7.423c3.37 5.421 6.344 10.763 5.738 16.524a.9.9 0 0 1-.016.209 13.03 13.03 0 0 1-.67 2.774z" fill="#f0f0f0"/><path d="M210.377 134.997l-7.621-28.208c-.679-2.485-3.226-3.965-5.721-3.325h0c-1.254.321-2.32 1.144-2.95 2.275a4.71 4.71 0 0 0-.378 3.706l8.815 29.058 4.612 17.883c-1.376 1.051-1.947 2.851-1.429 4.503s2.015 2.803 3.744 2.88a4.12 4.12 0 0 0 3.986-2.536c.663-1.599.254-3.443-1.024-4.612zm-64.129-6.074l23.157-17.821c2.037-1.577 2.431-4.496.887-6.557h0a4.72 4.72 0 0 0-3.23-1.858 4.71 4.71 0 0 0-3.57 1.067l-23.487 19.249-14.764 11.095c-1.497-.87-3.378-.71-4.707.4s-1.82 2.933-1.23 4.561 2.136 2.712 3.867 2.713 3.278-1.082 3.87-2.709zm18.874 4.096l-1.021 22.8 32.048-6.965c-2.728-9.16-4.583-10.722-2.533-17.1z" class="D"/><path d="M184.827 91.229h-10.679l-4.586 7.847-2.185-.121a7.87 7.87 0 0 0-8.306 7.861h0l2.692 4.173s-4.815 8.392 2.121 12.52c0 0-1.237 7.778 0 7.695s4.087-1.667 1.237-.084-2.637 1.8-2.268 2.164l.369.369 29.962 5.031.971-6.844c.095-1.036-.539 1.5.094-1.036s1.583-1.583.633-2.533 6.154-12.717 3.235-17.281l4.68-4.564h0c0-4.378-7.032-7.928-11.41-7.928h-.561z" class="C"/><path d="M159.098 281.455h-4.322l-2.056-16.666h6.378z" class="D"/><path d="M146.053 287.832a1.84 1.84 0 0 0 1.827 1.83h8.136l.252-.522 1.151-2.375.446 2.375.1.522h3.069l-.044-.526-.818-9.813-1.07-.066-4.625-.274-1.136-.069v2.93c-.865.917-7.632 4.384-7.288 5.988z" class="E"/><path d="M223.332 270.134l-3.635 2.338-10.749-12.908 5.365-3.451z" class="D"/><path d="M215.812 282.556a1.84 1.84 0 0 0 2.526.551l6.843-4.4-.071-.576-.317-2.62 1.66 1.756.366.386 2.581-1.66-.322-.419-6-7.81-.936.524-4.038 2.272-.993.556 1.585 2.464c-.226 1.232-4.041 7.812-2.884 8.976z" class="E"/><path d="M243.495 290.548l-133.834.13c-.279 0-.505-.226-.505-.505s.226-.505.505-.505l133.834-.13c.279 0 .505.226.505.505s-.226.505-.505.505z" fill="#cacaca"/><path d="M195.646 146.274s-20.486 10.836-31.321 3.443c0 0-2.37 11.48-3.32 12.43s-2.463 1.364-1.39 2.423 1.671 2.49-.369 4.308-4.074 1.241-2.107 3.112-5.948 47.779-5.948 47.779 1.266 42.693 0 43.984-2.959 1.58-1.321 3.177 1.638.358 1.638 2.561v2.2l.749 2.189h10.276s2.481-2.882 0-5.385.755-3.188 1.512-5.537 2.023.184.757-2.349-1.875-2.051-1.887-3.717 18.667-66.886 18.667-66.886l2.262 36.1 27.214 39.534 8.01-6.008s-5.832-8.21-4.468-9.339-4.02-2.544-2.322-3.817-2.389-2.556-.849-4.244-2.122-5.941-4.244-5.941-5.1-7.091-5.1-7.091l4.448-56.011zm-21.713-78.087c-.894.155-1.811.116-2.689-.115-2.746-.4-3.12.076-5.173 1.943-2.974 2.705-1.283 19.2-2.745 22.78l-.472.348c.936-.179 1.856-.436 2.749-.769l1.52-4.78a14 14 0 0 1 .9 3.86 21.57 21.57 0 0 1 4.364-1.874c1.487-1.009 12.248-2.024 13.632-2.468 3.509-11.946-2.149-16.774-12.086-18.925z" class="E"/><circle cx="177.566" cy="76.324" r="10.283" class="D"/><g class="E"><path d="M184.041 67.28a4.59 4.59 0 0 1-1.643-.576c-.512-.309-.802-.884-.748-1.479a1.58 1.58 0 0 1 1.693-1.122 4.6 4.6 0 0 1 2.041.826c-.137-1.453-1.25-2.624-2.694-2.834.971-.124 1.957-.03 2.886.276.946.337 1.554 1.261 1.488 2.263a3.69 3.69 0 0 1 3.631 2.252c.562 1.437.562 3.032 0 4.469a1.58 1.58 0 0 1-.791 1.046 1.69 1.69 0 0 1-1.5-.45 35.84 35.84 0 0 1-6.251-5.773"/><path d="M188.525 87.257c-.436.205-.209.969-.548 1.311-.147.145-.324.255-.519.323a6.25 6.25 0 0 0-.44-1.855c-.044-.108-.117-.228-.231-.218-.133.016-.168.19-.171.32-.027.644-.169 1.278-.421 1.871l-.009.022-.294-.01c-.735-.029-2.362-1.915-2.723-1.276 1.273-2.257 2.824-5.651 3.062-8.232a3.65 3.65 0 0 0-.117-1.615c-.17-.531-.634-.914-1.187-.981a.91.91 0 0 0-.94 1.038l-.184-.025c-1.7-1.387-.234-3.8-2.216-4.749-.671-.323-4.781.757-5.506.567a6.24 6.24 0 0 0-.459-2.226c-.044-.108-.117-.228-.231-.218-.133.016-.168.19-.171.32-.027.644-.169 1.278-.421 1.871a7.84 7.84 0 0 0-3.011.158c-.868.228-1.691.621-2.561.829a3.31 3.31 0 0 1-2.6-.285 2.93 2.93 0 0 1-.747-3.59 7.07 7.07 0 0 1 1.589-2.052l1.529-1.406 1.387-1.244a16.91 16.91 0 0 1 1.855-1.513c2.109-1.382 4.694-1.833 7.146-1.247 1.456.348 3.4-.142 4.736.538a28.06 28.06 0 0 1 2.849 2.216c1.564 1.244.506.23 2.216.95 4.076 1.715 2.272 19.026-.662 20.408z"/></g><circle cx="74.664" cy="98.541" r="63.774" fill="#fff"/><path d="M74.664 162.951c-35.573 0-64.41-28.837-64.41-64.41s28.837-64.41 64.41-64.41 64.41 28.837 64.41 64.41c-.04 35.556-28.854 64.37-64.41 64.41zm0-127.547c-34.87 0-63.137 28.267-63.137 63.137s28.267 63.137 63.137 63.137 63.137-28.267 63.137-63.137c-.04-34.853-28.284-63.097-63.137-63.137z" fill="#ff7829" stroke="#ff7829" stroke-width="2"/><path d="M65.964 131.732a7.09 7.09 0 0 1-5.675-2.838l-17.4-23.2c-1.572-2.024-1.929-4.739-.935-7.101s3.185-4.005 5.731-4.297 5.052.812 6.555 2.888l11.383 15.176 29.235-43.852c2.181-3.239 6.57-4.106 9.819-1.94s4.137 6.551 1.986 9.81l-34.8 52.2a7.1 7.1 0 0 1-5.706 3.157z" fill="#00d48e"/><ellipse cx="2.231" cy="3.207" rx="2.231" ry="3.207" transform="matrix(.144 -.99 .99 .144 133.701 40.036)" class="C"/><ellipse cx="2.231" cy="3.207" rx="2.231" ry="3.207" transform="matrix(.144 -.99 .99 .144 154.569 38)" class="B"/><ellipse cx="2.231" cy="3.207" rx="2.231" ry="3.207" transform="matrix(.144 -.99 .99 .144 127.987 23.142)" class="F"/><ellipse cx="2.027" cy="1.41" rx="2.027" ry="1.41" transform="matrix(.008 -1 1 .008 122.752 16.943)" class="C"/><ellipse cx="2.027" cy="1.41" rx="2.027" ry="1.41" transform="matrix(.008 -1 1 .008 119.677 4.054)" class="B"/><ellipse cx="2.027" cy="1.41" rx="2.027" ry="1.41" transform="matrix(.008 -1 1 .008 143.589 26.738)" class="C"/><ellipse cx="2.027" cy="1.41" rx="2.027" ry="1.41" transform="matrix(.008 -1 1 .008 133.505 31.773)" class="F"/><ellipse cx="2.027" cy="1.41" rx="2.027" ry="1.41" transform="matrix(.008 -1 1 .008 147.543 41.079)" class="B"/><ellipse cx="2.231" cy="3.207" rx="2.231" ry="3.207" transform="matrix(.144 -.99 .99 .144 14.024 191.118)" class="C"/><ellipse cx="2.231" cy="3.207" rx="2.231" ry="3.207" transform="matrix(.144 -.99 .99 .144 34.892 189.082)" class="B"/><ellipse cx="2.231" cy="3.207" rx="2.231" ry="3.207" transform="matrix(.144 -.99 .99 .144 8.31 174.224)" class="F"/><ellipse cx="2.027" cy="1.41" rx="2.027" ry="1.41" transform="matrix(.008 -1 1 .008 3.075 168.025)" class="C"/><ellipse cx="2.027" cy="1.41" rx="2.027" ry="1.41" transform="matrix(.008 -1 1 .008 0 155.135)" class="B"/><ellipse cx="2.027" cy="1.41" rx="2.027" ry="1.41" transform="matrix(.008 -1 1 .008 23.912 177.82)" class="C"/><ellipse cx="2.027" cy="1.41" rx="2.027" ry="1.41" transform="matrix(.008 -1 1 .008 13.828 182.855)" class="F"/><ellipse cx="2.027" cy="1.41" rx="2.027" ry="1.41" transform="matrix(.008 -1 1 .008 27.866 192.161)" class="B"/></svg>