<svg xmlns="http://www.w3.org/2000/svg" width="1080" height="1080" xmlns:v="https://vecta.io/nano"><path vector-effect="non-scaling-stroke" d="M-540-540H540V540H-540z" fill="#fff" visibility="hidden" transform="translate(540 540)"/><path vector-effect="non-scaling-stroke" transform="translate(284 284)" d="M464 256c0 114.875-93.125 208-208 208S48 370.875 48 256 141.125 48 256 48s208 93.125 208 208zM0 256c0 141.385 114.615 256 256 256s256-114.615 256-256S397.385 0 256 0 0 114.615 0 256zm232-136v136c0 8 4 15.5 10.7 20l96 64c11 7.4 25.9 4.4 33.3-6.7s4.4-25.9-6.7-33.3L280 243.2V120c0-13.3-10.7-24-24-24s-24 10.7-24 24z" fill="#656565"/></svg>