<svg xmlns="http://www.w3.org/2000/svg" width="1080" height="1080" fill="#fff" xmlns:v="https://vecta.io/nano"><path vector-effect="non-scaling-stroke" d="M-540-540H540V540H-540z" visibility="hidden" transform="translate(540 540)"/><path vector-effect="non-scaling-stroke" transform="translate(348 284)" d="M376.6 84.5c11.3-13.6 9.5-33.8-4.1-45.1s-33.8-9.5-45.1 4.1L192 206 56.6 43.5c-11.3-13.6-31.5-15.4-45.1-4.1S-3.9 70.9 7.4 84.5L150.3 256 7.4 427.5c-11.3 13.6-9.5 33.8 4.1 45.1s33.8 9.5 45.1-4.1L192 306l135.4 162.5c11.3 13.6 31.5 15.4 45.1 4.1s15.4-31.5 4.1-45.1L233.7 256 376.6 84.5z"/></svg>