<svg xmlns="http://www.w3.org/2000/svg" xmlns:xlink="http://www.w3.org/1999/xlink" width="192.047" height="262.879" xmlns:v="https://vecta.io/nano"><path d="M169.992 262.454H86.379c-12.175-.013-22.041-9.879-22.055-22.054V22.055C64.337 9.88 74.204.013 86.379 0h83.613c12.175.013 22.042 9.88 22.055 22.055V240.4c-.014 12.175-9.88 22.041-22.055 22.054z" fill="#dadbdc"/><path d="M170.052 256.484H86.318a16.35 16.35 0 0 1-16.327-16.327V21.869A16.35 16.35 0 0 1 86.318 5.542h83.734a16.35 16.35 0 0 1 16.327 16.327v218.288a16.35 16.35 0 0 1-16.327 16.327z" fill="#fff"/><path d="M140.027 20.072h-23.679a5.67 5.67 0 0 1-5.667-5.668 5.67 5.67 0 0 1 5.667-5.667h23.678a5.67 5.67 0 0 1 5.668 5.668 5.67 5.67 0 0 1-5.668 5.668z" fill="#dadbdc"/><g fill="#df3d24"><use xlink:href="#B"/><use xlink:href="#B" y="14.006"/><path d="M144.322 114.742H94.904c-1.372 0-2.489-1.42-2.489-3.161s1.117-3.161 2.489-3.161h49.418c1.372 0 2.49 1.42 2.49 3.161s-1.117 3.161-2.49 3.161z"/></g><circle cx="128.185" cy="167.515" r="29.575" fill="#0bb77e"/><path d="M114.693 168.528q3.766 7.372 7.532 14.751a1.8 1.8 0 0 0 3.25-.427c3.311-11 9.389-20.967 17.653-28.948 1.65-1.593-.868-4.1-2.518-2.518-8.693 8.422-15.086 18.928-18.571 30.519l3.251-.427q-3.766-7.372-7.532-14.751c-1.038-2.041-4.111-.242-3.073 1.792h.007z" fill="#fff" stroke="#fff"/><g fill="#f3a3a6"><path d="M48.457 131.74l-7.17 2.446-.112-10.351 6.525-.074z"/><circle cx="42.015" cy="119.523" r="7.17"/></g><g fill="#2f2e43"><path d="M43.975 118.791c-1.2-.022-2-1.225-2.481-2.329s-.974-2.368-2.087-2.814c-.914-.364-2.49 2.178-3.217 1.515-.758-.693-.065-4.3.723-4.957a4.9 4.9 0 0 1 2.9-.853 29.77 29.77 0 0 1 7.464.515 8.06 8.06 0 0 1 4.187 1.84c1.4 1.372 1.775 3.464 1.9 5.421a10.88 10.88 0 0 1-.922 5.867c-.908 1.851-2.895 2.919-4.94 2.654a12.85 12.85 0 0 1 .043-3.234 4.54 4.54 0 0 0-.7-3.1 1.99 1.99 0 0 0-2.836-.407"/><path d="M52.821 121.177c.675-.591 1.549-.906 2.446-.883a2.48 2.48 0 0 1 2.026 1.81 3.19 3.19 0 0 1-.589 2.719 4.47 4.47 0 0 1-2.377 1.537 2.5 2.5 0 0 1-1.637 0c-.775-.354-1.158-1.236-.888-2.044"/></g><path d="M26.143 188.913c-.45 2.36.446 4.5 2.009 4.784s3.191-1.407 3.641-3.767c.195-.941.151-1.916-.126-2.836l5.516-36.981-7.43-1.312-2.446 37.512c-.597.76-.997 1.655-1.165 2.606h0z" fill="#f3a3a6"/><path d="M41.157 129.437l-5.061.056c-3.572.58-4.524 2.5-5.3 6.035-1.182 5.39-2.689 12.573-2.373 12.673.507.164 9.166 4.122 13.547 3.143z" fill="#ff7829"/><path fill="#f3a3a6" d="M40.636 247.04l6.737-.074.105 9.555-6.737.074z"/><path d="M34.227 262.451c-.71.009-1.338 0-1.814-.039-1.648-.284-3.173-1.053-4.382-2.208a1.22 1.22 0 0 1-.325-1.372h0a1.22 1.22 0 0 1 .779-.71l4.715-1.4 7.6-5.252.087.152a13.3 13.3 0 0 1 1.061 2.316 1.03 1.03 0 0 1-.065.862c-.088.13-.209.234-.351.3a3.51 3.51 0 0 0 1.918.632 2.12 2.12 0 0 0 2.36-1.827l.013-.069.056-.039c.922-.61 1.489-.888 1.689-.831.126.035.329.1.944 5.6.279.856.35 1.765.208 2.654-.273 1.325-6.044.931-7.2.84-.035 0-4.347.359-7.3.39h.007z" fill="#2f2e43"/><path fill="#f3a3a6" d="M60.79 242.86l5.676-3.629 5.147 8.051-5.676 3.629z"/><path d="M59.103 260.866a11.81 11.81 0 0 1-2.039-.165 1.22 1.22 0 0 1-1-1h0a1.21 1.21 0 0 1 .286-1.013l3.256-3.684 3.667-8.477.156.082a13.65 13.65 0 0 1 2.126 1.4 1.04 1.04 0 0 1 .4.766.8.8 0 0 1-.139.442 3.53 3.53 0 0 0 1.961-.481 2.12 2.12 0 0 0 1.035-2.8l-.026-.065.03-.061c.459-1 .8-1.541.991-1.6.126-.035.329-.1 3.767 4.252a5.65 5.65 0 0 1 1.58 2.139c.468 1.269-4.633 3.988-5.663 4.52a90.27 90.27 0 0 1-7.551 5.122c-.891.418-1.865.625-2.849.606l.009.009zm-7.677-93.882l-18.86.208-1.51 17.56 8.209 64.744 9.629-.108-4.265-37.4 15.997 33.634 8.49-6.087-12.55-31.42s4.052-27.54.554-34.351-5.685-6.784-5.685-6.784v.009z" fill="#2f2e43"/><path d="M60.822 167.949l-29.952.333 8.555-38.823 13.054-.147z" fill="#ff7829"/><path d="M63.749 188.498c.5 2.351-.346 4.511-1.9 4.827s-3.221-1.333-3.723-3.684a5.79 5.79 0 0 1 .061-2.84l-6.339-36.849 7.4-1.476 3.277 37.446c.612.748 1.033 1.633 1.225 2.58h0z" fill="#f3a3a6"/><path d="M47.418 129.368l5.061-.056c3.585.5 4.576 2.4 5.429 5.919 1.3 5.364 2.966 12.508 2.654 12.616-.507.173-9.07 4.321-13.474 3.442l.333-21.921z" fill="#ff7829"/><path d="M93.12 262.454c-.001.234-.19.423-.424.424H.424c-.234 0-.425-.19-.425-.425s.19-.424.425-.424H92.7c.234.001.423.19.424.424z" fill="#3f3d58"/><defs ><path id="B" d="M164.191 86.73H94.905c-1.372 0-2.49-1.42-2.49-3.161s1.117-3.161 2.49-3.161h69.286c1.373 0 2.49 1.42 2.49 3.161s-1.116 3.161-2.49 3.161z"/></defs></svg>