<svg xmlns="http://www.w3.org/2000/svg" width="244" height="250.875"><g data-name="undraw_add_files_re_v09g (1)"><g><path data-name="Trazado 126" d="M194.695 110.642v-4.881a7.31 7.31 0 0 0-6.887-7.294V79.404h-1.62v19.041h-7.292v12.154H144.46v139.767h76.163V138.043a27.444 27.444 0 0 0-25.926-27.4Z" fill="#dde0e3"/><path data-name="Rectángulo 124" fill="#fff" d="M157.019 130.45h10.128v8.102h-10.128z"/><path data-name="Rectángulo 125" fill="#fff" d="M173.629 130.45h10.128v8.102h-10.128z"/><path data-name="Rectángulo 126" fill="#fff" d="M190.239 130.45h10.128v8.102h-10.128z"/><path data-name="Rectángulo 127" fill="#fff" d="M157.019 151.111h10.128v8.102h-10.128z"/><path data-name="Rectángulo 128" fill="#fff" d="M173.629 151.111h10.128v8.102h-10.128z"/><path data-name="Rectángulo 129" fill="#fff" d="M190.239 151.111h10.128v8.102h-10.128z"/><path data-name="Rectángulo 130" fill="#fff" d="M157.019 171.772h10.128v8.102h-10.128z"/><path data-name="Rectángulo 131" fill="#fff" d="M173.629 171.772h10.128v8.102h-10.128z"/><path data-name="Rectángulo 132" fill="#fff" d="M190.239 171.772h10.128v8.102h-10.128z"/><path data-name="Rectángulo 133" fill="#fff" d="M157.019 192.434h10.128v8.102h-10.128z"/><path data-name="Rectángulo 134" fill="#fff" d="M173.629 192.434h10.128v8.102h-10.128z"/><path data-name="Rectángulo 135" fill="#fff" d="M190.239 192.434h10.128v8.102h-10.128z"/><path data-name="Rectángulo 136" fill="#fff" d="M157.019 213.095h10.128v8.102h-10.128z"/><path data-name="Rectángulo 137" fill="#fff" d="M173.629 213.095h10.128v8.102h-10.128z"/><path data-name="Rectángulo 138" fill="#fff" d="M190.239 213.095h10.128v8.102h-10.128z"/><path data-name="Rectángulo 139" fill="#fff" d="M157.019 233.756h10.128v8.102h-10.128z"/><path data-name="Rectángulo 140" fill="#fff" d="M173.629 233.756h10.128v8.102h-10.128z"/><path data-name="Rectángulo 141" fill="#fff" d="M190.239 233.756h10.128v8.102h-10.128z"/><path data-name="Trazado 121" d="M150.267 233.254a10.321 10.321 0 0 1-10.179-8.621v-.021l.013-.016a9.967 9.967 0 0 0 1.582-2.633 6.71 6.71 0 0 1-1.651 1.51l-.065.043v-.078a10.813 10.813 0 0 1-.012-.5 10.261 10.261 0 0 1 4.867-8.762 14.586 14.586 0 1 1 24.375-14.685l.013.039-.038.016a7.171 7.171 0 0 1-2.781.586 9.961 9.961 0 0 0 3.065.371h.036l.009.035a14.639 14.639 0 0 1 .435 3.545v.129a6.613 6.613 0 0 0 2.184 4.931 10.318 10.318 0 0 1-.481 15.676l-.021.017-.025-.011a8.3 8.3 0 0 1-3.312-2.414 10.12 10.12 0 0 0 2.1 3.211l.039.04-.049.028a10.327 10.327 0 0 1-10.183.121 10.357 10.357 0 0 1-9.914 7.448Z" fill="#00d48e"/><path data-name="Trazado 122" d="M146.59 249.69a.187.187 0 0 1-.185-.161 62.772 62.772 0 0 1-.087-13.161c.647-6.907 2.725-16.855 8.951-25.025a.188.188 0 0 1 .3.227c-6.172 8.1-8.233 17.974-8.876 24.832a62.35 62.35 0 0 0 .085 13.074.188.188 0 0 1-.186.214Z" fill="#3f3d56"/><path data-name="Trazado 123" d="M149.702 222.147a.188.188 0 0 1-.11-.339 25.836 25.836 0 0 1 5.7-2.9 20.063 20.063 0 0 1 12.861-.629.187.187 0 0 1-.114.357 19.693 19.693 0 0 0-12.618.624 25.415 25.415 0 0 0-5.613 2.855.187.187 0 0 1-.106.032Z" fill="#3f3d56"/><circle data-name="Elipse 28" cx="18.231" cy="18.231" r="18.231" transform="translate(37.046 14.559)" fill="#df3d24"/><path data-name="Trazado 124" d="M53.83 42.335H51.5V27.977a7.316 7.316 0 0 0-7.316-7.316h-10.1V0h-1.621v20.661H18.685v21.674H5.113v207.829h76.163V69.78A27.445 27.445 0 0 0 53.83 42.335Z" fill="#dde0e3"/><path data-name="Trazado 125" d="M123.597 168.937h-2.011v-2.812a7.31 7.31 0 0 0-6.887-7.295v-19.062h-1.624v19.041h-7.292v10.128H79.858v81.43h57.528v-67.642a13.789 13.789 0 0 0-13.788-13.788Z" fill="#c6c9cb"/><path data-name="Rectángulo 142" fill="#fff" d="M26.787 58.743h32.815v2.431H26.787z"/><path data-name="Rectángulo 143" fill="#fff" d="M26.787 73.732h32.815v2.431H26.787z"/><path data-name="Rectángulo 144" fill="#fff" d="M26.787 88.722h32.815v2.431H26.787z"/><path data-name="Rectángulo 145" fill="#fff" d="M26.787 103.712h32.815v2.431H26.787z"/><path data-name="Rectángulo 146" fill="#fff" d="M26.787 118.701h32.815v2.431H26.787z"/><path data-name="Rectángulo 147" fill="#fff" d="M26.787 133.691h32.815v2.431H26.787z"/><path data-name="Rectángulo 148" fill="#fff" d="M26.787 148.68h32.815v2.431H26.787z"/><path data-name="Rectángulo 149" fill="#fff" d="M26.787 163.67h32.815v2.431H26.787z"/><path data-name="Rectángulo 150" fill="#fff" d="M26.787 178.659h32.815v2.431H26.787z"/><path data-name="Rectángulo 151" fill="#fff" d="M26.787 193.649h32.815v2.431H26.787z"/><path data-name="Rectángulo 152" fill="#fff" d="M26.787 208.639h32.815v2.431H26.787z"/><path data-name="Rectángulo 153" fill="#fff" d="M26.787 223.628h32.815v2.431H26.787z"/><path data-name="Rectángulo 154" fill="#fff" d="M86.948 179.875h10.128v8.102H86.948z"/><path data-name="Rectángulo 155" fill="#fff" d="M103.558 179.875h10.128v8.102h-10.128z"/><path data-name="Rectángulo 156" fill="#fff" d="M120.168 179.875h10.128v8.102h-10.128z"/><path data-name="Rectángulo 157" fill="#fff" d="M87.151 200.536h10.128v8.102H87.151z"/><path data-name="Rectángulo 158" fill="#fff" d="M103.761 200.536h10.128v8.102h-10.128z"/><path data-name="Rectángulo 159" fill="#fff" d="M120.371 200.536h10.128v8.102h-10.128z"/><path data-name="Rectángulo 160" fill="#fff" d="M87.353 221.197h10.128v8.102H87.353z"/><path data-name="Rectángulo 161" fill="#fff" d="M103.963 221.197h10.128v8.102h-10.128z"/><path data-name="Rectángulo 162" fill="#fff" d="M120.573 221.197h10.128v8.102h-10.128z"/><path data-name="Rectángulo 163" fill="#fff" d="M30.028 25.118h10.128v8.102H30.028z"/><path data-name="Trazado 127" d="M7.895 230.191c.805-6.473 4.817-12.851 10.99-14.958a30.055 30.055 0 0 0 0 20.635c.949 2.566 2.271 5.321 1.379 7.908a6.718 6.718 0 0 1-3.432 3.61 19.953 19.953 0 0 1-4.867 1.5l-.327.271c-2.641-5.969-4.548-12.493-3.743-18.966Z" fill="#cacaca"/><path data-name="Trazado 128" d="M18.947 215.355a25.689 25.689 0 0 0-6.386 14.458 11.063 11.063 0 0 0 .126 3.464 6.345 6.345 0 0 0 1.578 2.943 13.131 13.131 0 0 1 2.038 2.439 3.885 3.885 0 0 1 .19 3.172 10.1 10.1 0 0 1-2.237 3.336 9.91 9.91 0 0 0-2.484 3.709c-.052.178-.324.087-.273-.09.74-2.554 3.219-4 4.4-6.3a3.934 3.934 0 0 0 .266-3.452 10.188 10.188 0 0 0-2.022-2.516 6.771 6.771 0 0 1-1.65-2.82 10.228 10.228 0 0 1-.259-3.446 24.923 24.923 0 0 1 1.82-7.574 26.143 26.143 0 0 1 4.7-7.534c.123-.138.312.079.19.216Z" fill="#fff"/><path data-name="Trazado 129" d="M12.638 228.073a3.854 3.854 0 0 1-2.934-4.037.144.144 0 0 1 .287.014 3.569 3.569 0 0 0 2.737 3.75c.178.042.089.315-.09.273Z" fill="#fff"/><path data-name="Trazado 130" d="M13.851 235.87a7.428 7.428 0 0 0 3.317-4.278c.052-.178.325-.087.273.09a7.727 7.727 0 0 1-3.461 4.445c-.159.095-.288-.163-.129-.257Z" fill="#fff"/><path data-name="Trazado 131" d="M15.447 220.185a2.182 2.182 0 0 0 2.067-.1c.158-.1.286.161.129.257a2.445 2.445 0 0 1-2.287.121.149.149 0 0 1-.091-.182.144.144 0 0 1 .182-.091Z" fill="#fff"/><path data-name="Trazado 132" d="M37.703 226.797c-.1.063-.194.126-.291.192a28.738 28.738 0 0 0-3.674 2.868c-.09.08-.18.163-.267.245a30.288 30.288 0 0 0-6.578 9 29.416 29.416 0 0 0-1.611 4.169c-.595 1.973-1.082 4.159-2.259 5.773a5.048 5.048 0 0 1-.393.485H11.995l-.073-.034-.425.019.053-.228.032-.131c.01-.044.015-.058.019-.085 0-.01 0-.019.007-.027 0-.027.012-.051.017-.075q.16-.651.33-1.3a43.252 43.252 0 0 1 3.64-9.555l.15-.272a28.062 28.062 0 0 1 2.521-3.824 24.806 24.806 0 0 1 1.652-1.89 20.637 20.637 0 0 1 5.163-3.868 16.385 16.385 0 0 1 12.307-1.555c.109.026.211.057.315.093Z" fill="#cacaca"/><path data-name="Trazado 133" d="M37.683 226.93a25.689 25.689 0 0 0-13.8 7.7 11.065 11.065 0 0 0-1.985 2.841 6.345 6.345 0 0 0-.512 3.3 13.132 13.132 0 0 1 .159 3.175 3.885 3.885 0 0 1-1.758 2.647 10.1 10.1 0 0 1-3.804 1.32 9.91 9.91 0 0 0-4.217 1.466c-.148.111-.312-.126-.164-.236 2.129-1.593 4.981-1.259 7.31-2.384a3.934 3.934 0 0 0 2.291-2.6 10.19 10.19 0 0 0-.1-3.226 6.771 6.771 0 0 1 .38-3.245 10.229 10.229 0 0 1 1.868-2.907 24.926 24.926 0 0 1 6.013-4.951 26.145 26.145 0 0 1 8.289-3.185c.181-.036.2.251.022.287Z" fill="#fff"/><path data-name="Trazado 134" d="M24.985 233.286a3.854 3.854 0 0 1 .088-4.99c.123-.138.344.046.221.184a3.569 3.569 0 0 0-.073 4.642c.118.142-.119.305-.236.164Z" fill="#fff"/><path data-name="Trazado 135" d="M21.259 240.243a7.429 7.429 0 0 0 5.225-1.419c.149-.11.312.126.164.236a7.726 7.726 0 0 1-5.44 1.465c-.184-.021-.132-.3.051-.283Z" fill="#fff"/><path data-name="Trazado 136" d="M31.978 228.679a2.182 2.182 0 0 0 1.714 1.161c.184.018.132.3-.051.283a2.444 2.444 0 0 1-1.9-1.28.149.149 0 0 1 .036-.2.144.144 0 0 1 .201.036Z" fill="#fff"/><path data-name="Trazado 137" d="M201.139 230.191c.8-6.473 4.817-12.851 10.99-14.958a30.055 30.055 0 0 0 0 20.635c.949 2.566 2.271 5.321 1.379 7.908a6.719 6.719 0 0 1-3.432 3.61 19.954 19.954 0 0 1-4.867 1.5l-.328.271c-2.64-5.969-4.547-12.493-3.742-18.966Z" fill="#cacaca"/><path data-name="Trazado 138" d="M212.19 215.355a25.689 25.689 0 0 0-6.386 14.458 11.06 11.06 0 0 0 .126 3.464 6.345 6.345 0 0 0 1.578 2.943 13.131 13.131 0 0 1 2.038 2.439 3.885 3.885 0 0 1 .19 3.172 10.1 10.1 0 0 1-2.237 3.336 9.911 9.911 0 0 0-2.484 3.709c-.052.178-.325.087-.273-.09.74-2.554 3.219-4 4.4-6.3a3.935 3.935 0 0 0 .266-3.452 10.189 10.189 0 0 0-2.022-2.516 6.771 6.771 0 0 1-1.65-2.82 10.224 10.224 0 0 1-.259-3.446 24.919 24.919 0 0 1 1.82-7.574 26.144 26.144 0 0 1 4.7-7.534c.123-.138.312.079.19.216Z" fill="#fff"/><path data-name="Trazado 139" d="M205.881 228.073a3.854 3.854 0 0 1-2.934-4.037.144.144 0 0 1 .287.014 3.569 3.569 0 0 0 2.737 3.75c.18.043.089.316-.09.273Z" fill="#fff"/><path data-name="Trazado 140" d="M207.095 235.87a7.428 7.428 0 0 0 3.317-4.278c.052-.178.325-.087.273.09a7.727 7.727 0 0 1-3.461 4.445c-.159.094-.288-.163-.129-.257Z" fill="#fff"/><path data-name="Trazado 141" d="M208.691 220.185a2.182 2.182 0 0 0 2.067-.1c.158-.1.286.161.129.257a2.445 2.445 0 0 1-2.287.121.149.149 0 0 1-.091-.182.144.144 0 0 1 .182-.091Z" fill="#fff"/><path data-name="Trazado 142" d="M230.947 226.797c-.1.063-.194.126-.291.192a28.735 28.735 0 0 0-3.674 2.868c-.09.08-.18.163-.267.245a30.29 30.29 0 0 0-6.578 9 29.412 29.412 0 0 0-1.611 4.169c-.595 1.973-1.082 4.159-2.259 5.773a5.038 5.038 0 0 1-.393.485h-10.635l-.073-.034-.425.019.053-.228.032-.131c.01-.044.015-.058.019-.085 0-.01 0-.019.007-.027 0-.027.012-.051.017-.075q.16-.651.33-1.3a43.254 43.254 0 0 1 3.64-9.555l.15-.272a28.068 28.068 0 0 1 2.521-3.824 24.839 24.839 0 0 1 1.652-1.89 20.635 20.635 0 0 1 5.163-3.868 16.385 16.385 0 0 1 12.307-1.555c.109.026.211.057.315.093Z" fill="#cacaca"/><path data-name="Trazado 143" d="M230.927 226.93a25.689 25.689 0 0 0-13.8 7.7 11.066 11.066 0 0 0-1.985 2.841 6.345 6.345 0 0 0-.512 3.3 13.13 13.13 0 0 1 .159 3.175 3.885 3.885 0 0 1-1.758 2.647 10.1 10.1 0 0 1-3.804 1.32 9.91 9.91 0 0 0-4.217 1.466c-.148.111-.312-.126-.164-.236 2.129-1.593 4.981-1.259 7.31-2.384a3.935 3.935 0 0 0 2.291-2.6 10.189 10.189 0 0 0-.1-3.226 6.77 6.77 0 0 1 .38-3.245 10.228 10.228 0 0 1 1.868-2.907 24.922 24.922 0 0 1 6.013-4.951 26.145 26.145 0 0 1 8.289-3.185c.181-.036.2.251.022.287Z" fill="#fff"/><path data-name="Trazado 144" d="M218.229 233.286a3.854 3.854 0 0 1 .088-4.99c.123-.138.344.046.221.184a3.569 3.569 0 0 0-.073 4.642c.118.143-.119.306-.236.164Z" fill="#fff"/><path data-name="Trazado 145" d="M214.503 240.243a7.429 7.429 0 0 0 5.224-1.419c.149-.11.312.126.164.236a7.726 7.726 0 0 1-5.44 1.465c-.184-.02-.131-.303.052-.282Z" fill="#fff"/><path data-name="Trazado 146" d="M225.222 228.679a2.182 2.182 0 0 0 1.714 1.161c.184.018.132.3-.051.283a2.444 2.444 0 0 1-1.9-1.28.149.149 0 0 1 .036-.2.145.145 0 0 1 .2.036Z" fill="#fff"/><path data-name="Trazado 147" d="M83.988 30.389a4.92 4.92 0 0 0-2.808-1.2c-2.506.06-3.858 3.735-6.362 3.605-1.6-.082-2.657-1.7-4.144-2.293a3.545 3.545 0 0 0-4.61 2.8l.249-.228a60.018 60.018 0 0 0 22.993 1.062Z" fill="#f0f0f0"/><path data-name="Trazado 148" d="M199.448 13.779a4.92 4.92 0 0 0-2.808-1.2c-2.506.06-3.858 3.735-6.362 3.605-1.6-.082-2.657-1.7-4.144-2.293a3.545 3.545 0 0 0-4.61 2.8l.249-.228a60.018 60.018 0 0 0 22.993 1.062Z" fill="#f0f0f0"/><path data-name="Trazado 149" d="M135.033 81.435a4.92 4.92 0 0 0-2.808-1.2c-2.506.06-3.858 3.735-6.362 3.605-1.6-.082-2.657-1.7-4.144-2.293a3.545 3.545 0 0 0-4.61 2.8l.249-.228a60.018 60.018 0 0 0 22.993 1.062Z" fill="#f0f0f0"/><path data-name="Trazado 157" d="M177.315 191.845a.157.157 0 0 0 .073-.127l-.063.056a.694.694 0 0 1-.01.071Z" fill="#2f2e41"/><path data-name="Trazado 163" d="M241.308 250.577H.443a.443.443 0 1 1 0-.886h240.865a.443.443 0 0 1 0 .886Z" fill="#cacaca"/><path data-name="Trazado 168" d="m140.775 136.985-1.806.925a.073.073 0 0 1-.066-.129l1.806-.925a.072.072 0 0 1 .066.129Z" fill="#fff"/><circle data-name="Elipse 29" cx=".058" cy=".058" r=".058" transform="translate(140.967 136.717)" fill="#fff"/><path data-name="Trazado 169" d="M146.986 140.318a.131.131 0 0 1-.176-.057l-1.163-2.271a.13.13 0 1 1 .232-.119l1.163 2.271a.131.131 0 0 1-.057.176Z" fill="#3f3d56"/><path data-name="Trazado 170" d="M137.534 143.043a.131.131 0 0 1-.176-.057l-.264-.516a.13.13 0 1 1 .232-.119l.264.516a.131.131 0 0 1-.056.176Z" fill="#3f3d56"/><path data-name="Trazado 171" d="M138.023 143.998a.131.131 0 0 1-.176-.057l-.264-.516a.13.13 0 1 1 .232-.119l.264.516a.131.131 0 0 1-.056.176Z" fill="#3f3d56"/></g><g data-name="Grupo 9002" transform="translate(-78.982 -39)"><circle data-name="Elipse 3" cx="36.282" cy="36.282" r="36.282" transform="translate(250.418 217.311)" fill="#ff7829"/><path data-name="Trazado 34" d="M304.053 248.86h-12.62v-12.62a4.732 4.732 0 0 0-9.465 0v12.62h-12.62a4.733 4.733 0 0 0 0 9.465h12.62v12.62a4.732 4.732 0 0 0 9.465 0v-12.62h12.62a4.733 4.733 0 0 0 0-9.465Z" fill="#fff"/></g></g></svg>